<?xml version="1.0" encoding="utf-8"?>
<svg version="1.1" xmlns:xlink="http://www.w3.org/1999/xlink" width="281px" height="59px" xmlns="http://www.w3.org/2000/svg">
  <g transform="matrix(1 0 0 1 -130 -863 )">
    <path d="M 130.5 867  A 3.5 3.5 0 0 1 134 863.5 L 407 863.5  A 3.5 3.5 0 0 1 410.5 867 L 410.5 918  A 3.5 3.5 0 0 1 407 921.5 L 134 921.5  A 3.5 3.5 0 0 1 130.5 918 L 130.5 867  Z " fill-rule="nonzero" fill="#d9534f" stroke="none" />
    <path d="M 130.5 867  A 3.5 3.5 0 0 1 134 863.5 L 407 863.5  A 3.5 3.5 0 0 1 410.5 867 L 410.5 918  A 3.5 3.5 0 0 1 407 921.5 L 134 921.5  A 3.5 3.5 0 0 1 130.5 918 L 130.5 867  Z " stroke-width="1" stroke="#d43f3a" fill="none" />
  </g>
</svg>