<?xml version="1.0" encoding="utf-8"?>
<svg version="1.1" xmlns:xlink="http://www.w3.org/1999/xlink" width="40px" height="40px" xmlns="http://www.w3.org/2000/svg">
  <g transform="matrix(1 0 0 1 -153 -5772 )">
    <path d="M 32.4330357142857 20.1004464285714  C 32.6264880952381 20.1227678571429  32.7827380952381 20.2157738095238  32.9017857142857 20.3794642857143  L 33.7723214285714 21.5178571428571  C 33.8913690476191 21.6815476190476  33.9397321428571 21.8563988095238  33.9174107142857 22.0424107142857  C 33.8950892857143 22.2284226190476  33.8095238095238 22.3809523809524  33.6607142857143 22.5  C 33.0208333333333 23.0059523809524  32.0796130952381 23.7388392857143  30.8370535714286 24.6986607142857  C 29.5944940476191 25.6584821428571  28.5044642857143 26.4992559523809  27.5669642857143 27.2209821428571  C 26.6294642857143 27.9427083333333  26.1309523809524 28.3258928571429  26.0714285714286 28.3705357142857  C 25.4910714285714 28.8467261904762  25.0446428571429 29.203869047619  24.7321428571429 29.4419642857143  C 24.4196428571429 29.6800595238095  23.9694940476191 29.985119047619  23.3816964285714 30.3571428571429  C 22.7938988095238 30.7291666666667  22.2247023809524 31.000744047619  21.6741071428571 31.171875  C 21.1235119047619 31.343005952381  20.5729166666667 31.4285714285714  20.0223214285714 31.4285714285714  L 20 31.4285714285714  L 19.9776785714286 31.4285714285714  C 19.4270833333333 31.4285714285714  18.8764880952381 31.343005952381  18.3258928571429 31.171875  C 17.7752976190476 31.000744047619  17.2098214285714 30.7291666666667  16.6294642857143 30.3571428571429  C 16.0491071428571 29.985119047619  15.5952380952381 29.6763392857143  15.2678571428571 29.4308035714286  C 14.9404761904762 29.1852678571429  14.4940476190476 28.8318452380952  13.9285714285714 28.3705357142857  C 13.8541666666667 28.3110119047619  13.3705357142857 27.9352678571429  12.4776785714286 27.2433035714286  C 11.5848214285714 26.5513392857143  10.5171130952381 25.7254464285714  9.27455357142857 24.765625  C 8.03199404761905 23.8058035714286  7.12053571428571 23.1026785714286  6.54017857142857 22.65625  C 6.37648809523809 22.5372023809524  6.28348214285714 22.3846726190476  6.26116071428571 22.1986607142857  C 6.23883928571429 22.0126488095238  6.28720238095238 21.8377976190476  6.40625 21.6741071428571  L 7.23214285714286 20.5133928571429  C 7.35119047619048 20.3497023809524  7.51116071428571 20.2529761904762  7.71205357142857 20.2232142857143  C 7.91294642857143 20.1934523809524  8.09523809523809 20.2455357142857  8.25892857142857 20.3794642857143  C 9.65773809523809 21.4657738095238  11.9345238095238 23.2217261904762  15.0892857142857 25.6473214285714  C 15.1636904761905 25.7068452380952  15.4873511904762 25.9672619047619  16.0602678571429 26.4285714285714  C 16.6331845238095 26.8898809523809  17.0833333333333 27.2358630952381  17.4107142857143 27.4665178571429  C 17.7380952380952 27.6971726190476  18.1584821428571 27.9389880952381  18.671875 28.1919642857143  C 19.1852678571429 28.4449404761905  19.6205357142857 28.5714285714286  19.9776785714286 28.5714285714286  L 20 28.5714285714286  L 20.0223214285714 28.5714285714286  C 20.3794642857143 28.5714285714286  20.8147321428571 28.4449404761905  21.328125 28.1919642857143  C 21.8415178571429 27.9389880952381  22.2619047619048 27.6971726190476  22.5892857142857 27.4665178571429  C 22.9166666666667 27.2358630952381  23.3668154761905 26.8898809523809  23.9397321428571 26.4285714285714  C 24.5126488095238 25.9672619047619  24.8363095238095 25.7068452380952  24.9107142857143 25.6473214285714  C 28.75 22.7008928571429  31.0788690476191 20.9002976190476  31.8973214285714 20.2455357142857  C 32.0610119047619 20.1264880952381  32.2395833333333 20.078125  32.4330357142857 20.1004464285714  Z M 36.9308035714286 36.9308035714286  C 37.0721726190476 36.7894345238095  37.1428571428571 36.6220238095238  37 36.4285714285714  L 37 15.7142857142857  C 35.8035714285714 14.4791666666667  34.6205357142857 13.4449404761905  33.59375 12.6116071428571  C 32.2395833333333 11.5104166666667  29.3452380952381 9.2485119047619  24.9107142857143 5.82589285714286  C 24.8660714285714 5.79613095238095  24.546130952381 5.53571428571428  23.9508928571429 5.04464285714286  C 23.3556547619048 4.55357142857143  22.9017857142857 4.19642857142857  22.5892857142857 3.97321428571428  C 22.2767857142857 3.75  21.860119047619 3.50818452380952  21.3392857142857 3.24776785714286  C 20.8184523809524 2.98735119047619  20.3794642857143 2.85714285714286  20.0223214285714 2.85714285714286  L 20 2.85714285714286  L 19.9776785714286 2.85714285714286  C 19.6205357142857 2.85714285714286  19.1815476190476 2.98735119047619  18.6607142857143 3.24776785714286  C 18.139880952381 3.50818452380952  17.7232142857143 3.75  17.4107142857143 3.97321428571428  C 17.0982142857143 4.19642857142857  16.6443452380952 4.55357142857143  16.0491071428571 5.04464285714286  C 15.453869047619 5.53571428571428  15.1339285714286 5.79613095238095  15.0892857142857 5.82589285714286  C 11.889880952381 8.29613095238095  9.54241071428571 10.1227678571429  8.046875 11.3058035714286  C 6.55133928571429 12.4888392857143  5.58779761904762 13.2626488095238  5.15625 13.6272321428571  C 4.72470238095238 13.9918154761905  4.11458333333333 14.5461309523809  3.32589285714286 15.2901785714286  C 3.11755952380952 15.46875  2.96130952380952 15.610119047619  3 15.7142857142857  L 3 36.4285714285714  C 2.85714285714286 36.6220238095238  2.92782738095238 36.7894345238095  3.06919642857143 36.9308035714286  C 3.21056547619048 37.0721726190476  3.37797619047619 37.1428571428571  3.57142857142857 37  L 36.4285714285714 37  C 36.6220238095238 37.1428571428571  36.7894345238095 37.0721726190476  36.9308035714286 36.9308035714286  Z M 39.0848214285714 13.6160714285714  C 39.6949404761905 14.1815476190476  40 14.8809523809524  40 15.7142857142857  L 40 36.4285714285714  C 40 37.4107142857143  39.6502976190476 38.2514880952381  38.9508928571429 38.9508928571429  C 38.2514880952381 39.6502976190476  37.4107142857143 40  36.4285714285714 40  L 3.57142857142857 40  C 2.58928571428571 40  1.7485119047619 39.6502976190476  1.04910714285714 38.9508928571429  C 0.349702380952381 38.2514880952381  0 37.4107142857143  0 36.4285714285714  L 0 15.7142857142857  C 0 14.8809523809524  0.305059523809524 14.1815476190476  0.915178571428571 13.6160714285714  C 2.74553571428571 11.9196428571429  5.34970238095238 9.75818452380952  8.72767857142857 7.13169642857143  C 12.1056547619048 4.50520833333333  13.8392857142857 3.1547619047619  13.9285714285714 3.08035714285714  C 14.4642857142857 2.63392857142857  14.9032738095238 2.28050595238095  15.2455357142857 2.02008928571428  C 15.5877976190476 1.75967261904762  16.0453869047619 1.44717261904762  16.6183035714286 1.08258928571428  C 17.1912202380952 0.718005952380949  17.7566964285714 0.446428571428572  18.3147321428571 0.267857142857144  C 18.8727678571429 0.0892857142857162  19.4270833333333 0  19.9776785714286 0  L 20 0  L 20.0223214285714 0  C 20.5729166666667 0  21.1272321428571 0.0892857142857162  21.6852678571429 0.267857142857144  C 22.2433035714286 0.446428571428572  22.8087797619048 0.718005952380949  23.3816964285714 1.08258928571428  C 23.9546130952381 1.44717261904762  24.4122023809524 1.75967261904762  24.7544642857143 2.02008928571428  C 25.0967261904762 2.28050595238095  25.5357142857143 2.63392857142857  26.0714285714286 3.08035714285714  C 26.7113095238095 3.61607142857143  27.8720238095238 4.52380952380952  29.5535714285714 5.80357142857143  C 31.2351190476191 7.08333333333333  32.9166666666667 8.40029761904762  34.5982142857143 9.75446428571428  C 36.2797619047619 11.1086309523809  37.7752976190476 12.3958333333333  39.0848214285714 13.6160714285714  Z " fill-rule="nonzero" fill="#000000" stroke="none" transform="matrix(1 0 0 1 153 5772 )" />
  </g>
</svg>