<?xml version="1.0" encoding="utf-8"?>
<svg version="1.1" xmlns:xlink="http://www.w3.org/1999/xlink" width="22px" height="22px" xmlns="http://www.w3.org/2000/svg">
  <g transform="matrix(1 0 0 1 -892 -5781 )">
    <path d="M 20.8220858895706 0.13489409141583  C 21.1083844580777 -0.0367892976588653  21.3865030674847 -0.0286138981791191  21.6564417177914 0.159420289855073  C 21.9263803680982 0.355629877369007  22.0368098159509 0.61724266072092  21.9877300613497 0.944258639910815  L 18.8466257668712 19.7803790412486  C 18.8057259713701 20.0174656261613  18.6748466257669 20.2014121144556  18.4539877300614 20.3322185061316  C 18.3394683026585 20.3976217019695  18.2126789366053 20.4303232998885  18.0736196319018 20.4303232998885  C 17.9836400817996 20.4303232998885  17.8854805725971 20.4098848011892  17.7791411042945 20.3690078037904  L 11.3128834355828 17.7324414715719  L 7.65644171779141 21.742474916388  C 7.50920245398773 21.9141583054627  7.31697341513292 22  7.07975460122699 22  C 6.96523517382413 22  6.87116564417178 21.9836492010405  6.79754601226994 21.9509476031215  C 6.64212678936605 21.8937198067633  6.51942740286299 21.7976588628763  6.42944785276074 21.6627647714604  C 6.33946830265849 21.5278706800446  6.29447852760736 21.3786696395392  6.29447852760736 21.2151616499443  L 6.29447852760736 15.6722408026756  L 0.503067484662577 13.3054626532887  C 0.20040899795501 13.1910070605723  0.0368098159509202 12.9661835748792  0.0122699386503067 12.6309921962096  C -0.0122699386503067 12.3121516164994  0.118609406952965 12.0709773318469  0.404907975460123 11.907469342252  L 20.8220858895706 0.13489409141583  Z M 11.4233128834356 16.0769230769231  L 17.4601226993865 18.5418060200669  L 20.1717791411043 2.31772575250836  L 2.57668711656442 12.4593088071349  L 6.69938650306749 14.139353400223  L 17.2883435582822 6.30323299888517  L 11.4233128834356 16.0769230769231  Z " fill-rule="nonzero" fill="#ffffff" stroke="none" transform="matrix(1 0 0 1 892 5781 )" />
  </g>
</svg>