<?xml version="1.0" encoding="utf-8"?>
<svg version="1.1" xmlns:xlink="http://www.w3.org/1999/xlink" width="16px" height="13px" xmlns="http://www.w3.org/2000/svg">
  <g transform="matrix(1 0 0 1 -356 -399 )">
    <path d="M 15.1071428571429 4.99502840909091  C 15.4464285714286 4.75497159090909  15.7440476190476 4.48721590909091  16 4.19176136363636  L 16 11.5227272727273  C 16 11.9289772727273  15.860119047619 12.2767518939394  15.5803571428571 12.5660511363636  C 15.3005952380952 12.8553503787879  14.9642857142857 13  14.5714285714286 13  L 1.42857142857143 13  C 1.03571428571429 13  0.699404761904762 12.8553503787879  0.419642857142857 12.5660511363636  C 0.139880952380952 12.2767518939394  0 11.9289772727273  0 11.5227272727273  L 0 4.19176136363636  C 0.261904761904762 4.49337121212121  0.5625 4.76112689393939  0.901785714285714 4.99502840909091  C 3.05654761904762 6.50923295454546  4.53571428571429 7.57102272727273  5.33928571428571 8.18039772727273  C 5.67857142857143 8.43892045454546  5.95386904761905 8.64050662878788  6.16517857142857 8.78515625  C 6.3764880952381 8.92980587121212  6.6577380952381 9.07753314393939  7.00892857142857 9.22833806818182  C 7.36011904761905 9.37914299242424  7.6875 9.45454545454546  7.99107142857143 9.45454545454546  L 8 9.45454545454546  L 8.00892857142857 9.45454545454546  C 8.3125 9.45454545454546  8.63988095238095 9.37914299242424  8.99107142857143 9.22833806818182  C 9.34226190476191 9.07753314393939  9.62351190476191 8.92980587121212  9.83482142857143 8.78515625  C 10.046130952381 8.64050662878788  10.3214285714286 8.43892045454546  10.6607142857143 8.18039772727273  C 11.672619047619 7.42329545454546  13.1547619047619 6.36150568181818  15.1071428571429 4.99502840909091  Z M 15.5758928571429 0.433948863636363  C 15.858630952381 0.723248106060605  16 1.07102272727273  16 1.47727272727273  C 16 1.96354166666666  15.8541666666667 2.42826704545455  15.5625 2.87144886363636  C 15.2708333333333 3.31463068181818  14.9077380952381 3.69318181818182  14.4732142857143 4.00710227272727  C 12.235119047619 5.61363636363636  10.8422619047619 6.61387310606061  10.2946428571429 7.0078125  C 10.235119047619 7.05089962121212  10.108630952381 7.14476799242424  9.91517857142857 7.28941761363636  C 9.72172619047619 7.43406723484848  9.56101190476191 7.55101799242424  9.43303571428571 7.64026988636364  C 9.30505952380952 7.72952178030303  9.15029761904762 7.82954545454546  8.96875 7.94034090909091  C 8.78720238095238 8.05113636363637  8.61607142857143 8.13423295454546  8.45535714285714 8.18963068181818  C 8.29464285714286 8.24502840909091  8.14583333333333 8.27272727272727  8.00892857142857 8.27272727272727  L 8 8.27272727272727  L 7.99107142857143 8.27272727272727  C 7.85416666666667 8.27272727272727  7.70535714285714 8.24502840909091  7.54464285714286 8.18963068181818  C 7.38392857142857 8.13423295454546  7.21279761904762 8.05113636363637  7.03125 7.94034090909091  C 6.84970238095238 7.82954545454546  6.69494047619048 7.72952178030303  6.56696428571429 7.64026988636364  C 6.4389880952381 7.55101799242424  6.27827380952381 7.43406723484848  6.08482142857143 7.28941761363636  C 5.89136904761905 7.14476799242424  5.76488095238095 7.05089962121212  5.70535714285714 7.0078125  C 5.16369047619048 6.61387310606061  4.38392857142857 6.05220170454546  3.36607142857143 5.32279829545455  C 2.34821428571429 4.59339488636364  1.73809523809524 4.15482954545454  1.53571428571429 4.00710227272727  C 1.16666666666667 3.74857954545454  0.818452380952381 3.39311079545455  0.491071428571429 2.94069602272727  C 0.163690476190476 2.48828125  0 2.06818181818182  0 1.68039772727273  C 0 1.20028409090909  0.123511904761905 0.800189393939392  0.370535714285714 0.480113636363637  C 0.617559523809524 0.160037878787878  0.970238095238095 0  1.42857142857143 0  L 14.5714285714286 0  C 14.9583333333333 0  15.2931547619048 0.14464962121212  15.5758928571429 0.433948863636363  Z " fill-rule="nonzero" fill="#f59a23" stroke="none" transform="matrix(1 0 0 1 356 399 )" />
  </g>
</svg>