<?xml version="1.0" encoding="utf-8"?>
<svg version="1.1" xmlns:xlink="http://www.w3.org/1999/xlink" width="29px" height="25px" xmlns="http://www.w3.org/2000/svg">
  <g transform="matrix(1 0 0 1 -335 -1227 )">
    <path d="M 1.8125 11  L 27.1875 11  C 27.6878255208333 10.7142857142857  28.114990234375 10.888671875  28.468994140625 11.2374441964286  C 28.822998046875 11.5862165178571  29 12.007068452381  29 12.5  C 29 12.992931547619  28.822998046875 13.4137834821429  28.468994140625 13.7625558035714  C 28.114990234375 14.111328125  27.6878255208333 14.2857142857143  27.1875 14.2857142857143  L 26.97509765625 14.2857142857143  L 25.3466796875 23.5212053571429  C 25.2711588541667 23.9490327380952  25.0634765625 24.3024553571429  24.7236328125 24.5814732142857  C 24.3837890625 24.8604910714286  23.9967447916667 25  23.5625 25  L 5.4375 25  C 5.00325520833333 25  4.6162109375 24.8604910714286  4.2763671875 24.5814732142857  C 3.9365234375 24.3024553571429  3.72884114583333 23.9490327380952  3.6533203125 23.5212053571429  L 2.02490234375 14.2857142857143  L 1.8125 14.2857142857143  C 1.31217447916667 14.2857142857143  0.885009765625 14.111328125  0.531005859375 13.7625558035714  C 0.177001953125 13.4137834821429  0 12.992931547619  0 12.5  C 0 12.007068452381  0.177001953125 11.5862165178571  0.531005859375 11.2374441964286  C 0.885009765625 10.888671875  1.31217447916667 10.7142857142857  1.8125 11  Z M 6.796875 21.875  L 6.86767578125 21.875  C 7.11311848958333 21.8563988095238  7.31844075520833 21.7517671130952  7.483642578125 21.5611049107143  C 7.64884440104167 21.3704427083333  7.72200520833333 21.1542038690476  7.703125 20.9123883928571  L 7.25 15.1088169642857  C 7.23111979166667 14.8670014880952  7.12491861979167 14.6647135416667  6.931396484375 14.501953125  C 6.73787434895833 14.3391927083333  6.51839192708333 14.2671130952381  6.27294921875 14.2857142857143  C 6.02750651041667 14.3043154761905  5.82218424479167 14.408947172619  5.656982421875 14.599609375  C 5.49178059895833 14.790271577381  5.41861979166667 15.0065104166667  5.4375 15.2483258928571  L 5.890625 21.0518973214286  C 5.90950520833333 21.284412202381  6.00626627604167 21.479724702381  6.180908203125 21.6378348214286  C 6.35555013020833 21.7959449404762  6.56087239583333 21.875  6.796875 21.875  Z M 12.41845703125 21.6099330357143  C 12.5978190104167 21.4332217261905  12.6875 21.2239583333333  12.6875 20.9821428571429  L 12.6875 15.1785714285714  C 12.6875 14.936755952381  12.5978190104167 14.7274925595238  12.41845703125 14.55078125  C 12.2390950520833 14.3740699404762  12.0266927083333 14.2857142857143  11.78125 14.2857142857143  C 11.5358072916667 14.2857142857143  11.3234049479167 14.3740699404762  11.14404296875 14.55078125  C 10.9646809895833 14.7274925595238  10.875 14.936755952381  10.875 15.1785714285714  L 10.875 20.9821428571429  C 10.875 21.2239583333333  10.9646809895833 21.4332217261905  11.14404296875 21.6099330357143  C 11.3234049479167 21.7866443452381  11.5358072916667 21.875  11.78125 21.875  C 12.0266927083333 21.875  12.2390950520833 21.7866443452381  12.41845703125 21.6099330357143  Z M 17.85595703125 21.6099330357143  C 18.0353190104167 21.4332217261905  18.125 21.2239583333333  18.125 20.9821428571429  L 18.125 15.1785714285714  C 18.125 14.936755952381  18.0353190104167 14.7274925595238  17.85595703125 14.55078125  C 17.6765950520833 14.3740699404762  17.4641927083333 14.2857142857143  17.21875 14.2857142857143  C 16.9733072916667 14.2857142857143  16.7609049479167 14.3740699404762  16.58154296875 14.55078125  C 16.4021809895833 14.7274925595238  16.3125 14.936755952381  16.3125 15.1785714285714  L 16.3125 20.9821428571429  C 16.3125 21.2239583333333  16.4021809895833 21.4332217261905  16.58154296875 21.6099330357143  C 16.7609049479167 21.7866443452381  16.9733072916667 21.875  17.21875 21.875  C 17.4641927083333 21.875  17.6765950520833 21.7866443452381  17.85595703125 21.6099330357143  Z M 22.819091796875 21.6378348214286  C 22.9937337239583 21.479724702381  23.0904947916667 21.284412202381  23.109375 21.0518973214286  L 23.5625 15.2483258928571  C 23.5813802083333 15.0065104166667  23.5082194010417 14.790271577381  23.343017578125 14.599609375  C 23.1778157552083 14.408947172619  22.9724934895833 14.3043154761905  22.72705078125 14.2857142857143  C 22.4816080729167 14.2671130952381  22.2621256510417 14.3391927083333  22.068603515625 14.501953125  C 21.8750813802083 14.6647135416667  21.7688802083333 14.8670014880952  21.75 15.1088169642857  L 21.296875 20.9123883928571  C 21.2779947916667 21.1542038690476  21.3511555989583 21.3704427083333  21.516357421875 21.5611049107143  C 21.6815592447917 21.7517671130952  21.8868815104167 21.8563988095238  22.13232421875 21.875  L 22.203125 21.875  C 22.4391276041667 21.875  22.6444498697917 21.7959449404762  22.819091796875 21.6378348214286  Z M 7.384521484375 3.06919642857143  C 7.058837890625 3.32961309523809  6.84407552083333 3.66443452380952  6.740234375 4.07366071428572  L 5.42333984375 9.82142857142857  L 3.55419921875 9.82142857142857  L 4.984375 3.66908482142857  C 5.16373697916667 2.85063244047619  5.58382161458333 2.18331473214286  6.24462890625 1.66713169642857  C 6.90543619791667 1.15094866071428  7.66064453125 0.892857142857142  8.51025390625 0.892857142857142  L 10.875 0.892857142857142  C 10.875 0.651041666666666  10.9646809895833 0.441778273809521  11.14404296875 0.265066964285715  C 11.3234049479167 0.0883556547619069  11.5358072916667 0  11.78125 0  L 17.21875 0  C 17.4641927083333 0  17.6765950520833 0.0883556547619069  17.85595703125 0.265066964285715  C 18.0353190104167 0.441778273809521  18.125 0.651041666666666  18.125 0.892857142857142  L 20.48974609375 0.892857142857142  C 21.33935546875 0.892857142857142  22.0945638020833 1.15094866071428  22.75537109375 1.66713169642857  C 23.4161783854167 2.18331473214286  23.8362630208333 2.85063244047619  24.015625 3.66908482142857  L 25.44580078125 9.82142857142857  L 23.57666015625 9.82142857142857  L 22.259765625 4.07366071428572  C 22.1559244791667 3.66443452380952  21.941162109375 3.32961309523809  21.615478515625 3.06919642857143  C 21.289794921875 2.80877976190476  20.91455078125 2.67857142857143  20.48974609375 2.67857142857143  L 18.125 2.67857142857143  C 18.125 2.9203869047619  18.0353190104167 3.12965029761905  17.85595703125 3.30636160714286  C 17.6765950520833 3.48307291666667  17.4641927083333 3.57142857142857  17.21875 3.57142857142857  L 11.78125 3.57142857142857  C 11.5358072916667 3.57142857142857  11.3234049479167 3.48307291666667  11.14404296875 3.30636160714286  C 10.9646809895833 3.12965029761905  10.875 2.9203869047619  10.875 2.67857142857143  L 8.51025390625 2.67857142857143  C 8.08544921875 2.67857142857143  7.710205078125 2.80877976190476  7.384521484375 3.06919642857143  Z " fill-rule="nonzero" fill="#aaaaaa" stroke="none" fill-opacity="0.505882352941176" transform="matrix(1 0 0 1 335 1227 )" />
  </g>
</svg>