<?xml version="1.0" encoding="utf-8"?>
<svg version="1.1" xmlns:xlink="http://www.w3.org/1999/xlink" width="166px" height="59px" xmlns="http://www.w3.org/2000/svg">
  <g transform="matrix(1 0 0 1 -671 -1581 )">
    <path d="M 671.5 1585  A 3.5 3.5 0 0 1 675 1581.5 L 833 1581.5  A 3.5 3.5 0 0 1 836.5 1585 L 836.5 1636  A 3.5 3.5 0 0 1 833 1639.5 L 675 1639.5  A 3.5 3.5 0 0 1 671.5 1636 L 671.5 1585  Z " fill-rule="nonzero" fill="#d9534f" stroke="none" />
    <path d="M 671.5 1585  A 3.5 3.5 0 0 1 675 1581.5 L 833 1581.5  A 3.5 3.5 0 0 1 836.5 1585 L 836.5 1636  A 3.5 3.5 0 0 1 833 1639.5 L 675 1639.5  A 3.5 3.5 0 0 1 671.5 1636 L 671.5 1585  Z " stroke-width="1" stroke="#d43f3a" fill="none" />
  </g>
</svg>