<?xml version="1.0" encoding="utf-8"?>
<svg version="1.1" xmlns:xlink="http://www.w3.org/1999/xlink" width="23px" height="20px" xmlns="http://www.w3.org/2000/svg">
  <g transform="matrix(1 0 0 1 -294 -1465 )">
    <path d="M 1.4375 8.57142857142857  L 21.5625 8.57142857142857  C 21.9593098958333 8.57142857142857  22.298095703125 8.7109375  22.578857421875 8.98995535714286  C 22.859619140625 9.26897321428571  23 9.60565476190476  23 10  C 23 10.3943452380952  22.859619140625 10.7310267857143  22.578857421875 11.0100446428571  C 22.298095703125 11.2890625  21.9593098958333 11.4285714285714  21.5625 11.4285714285714  L 21.39404296875 11.4285714285714  L 20.1025390625 18.8169642857143  C 20.0426432291667 19.1592261904762  19.8779296875 19.4419642857143  19.6083984375 19.6651785714286  C 19.3388671875 19.8883928571429  19.0319010416667 20  18.6875 20  L 4.3125 20  C 3.96809895833333 20  3.6611328125 19.8883928571429  3.3916015625 19.6651785714286  C 3.1220703125 19.4419642857143  2.95735677083333 19.1592261904762  2.8974609375 18.8169642857143  L 1.60595703125 11.4285714285714  L 1.4375 11.4285714285714  C 1.04069010416667 11.4285714285714  0.701904296875 11.2890625  0.421142578125 11.0100446428571  C 0.140380859375 10.7310267857143  0 10.3943452380952  0 10  C 0 9.60565476190476  0.140380859375 9.26897321428571  0.421142578125 8.98995535714286  C 0.701904296875 8.7109375  1.04069010416667 8.57142857142857  1.4375 8.57142857142857  Z M 5.390625 17.5  L 5.44677734375 17.5  C 5.64143880208333 17.485119047619  5.80428059895833 17.4014136904762  5.935302734375 17.2488839285714  C 6.06632486979167 17.0963541666667  6.12434895833333 16.9233630952381  6.109375 16.7299107142857  L 5.75 12.0870535714286  C 5.73502604166667 11.8936011904762  5.65079752604167 11.7317708333333  5.497314453125 11.6015625  C 5.34383138020833 11.4713541666667  5.16975911458333 11.4136904761905  4.97509765625 11.4285714285714  C 4.78043619791667 11.4434523809524  4.61759440104167 11.5271577380952  4.486572265625 11.6796875  C 4.35555013020833 11.8322172619048  4.29752604166667 12.0052083333333  4.3125 12.1986607142857  L 4.671875 16.8415178571429  C 4.68684895833333 17.0275297619048  4.76359049479167 17.1837797619048  4.902099609375 17.3102678571429  C 5.04060872395833 17.436755952381  5.20345052083333 17.5  5.390625 17.5  Z M 9.84912109375 17.2879464285714  C 9.99137369791667 17.1465773809524  10.0625 16.9791666666667  10.0625 16.7857142857143  L 10.0625 12.1428571428571  C 10.0625 11.9494047619048  9.99137369791667 11.781994047619  9.84912109375 11.640625  C 9.70686848958334 11.499255952381  9.53841145833334 11.4285714285714  9.34375 11.4285714285714  C 9.14908854166667 11.4285714285714  8.98063151041667 11.499255952381  8.83837890625 11.640625  C 8.69612630208333 11.781994047619  8.625 11.9494047619048  8.625 12.1428571428571  L 8.625 16.7857142857143  C 8.625 16.9791666666667  8.69612630208333 17.1465773809524  8.83837890625 17.2879464285714  C 8.98063151041667 17.4293154761905  9.14908854166667 17.5  9.34375 17.5  C 9.53841145833334 17.5  9.70686848958334 17.4293154761905  9.84912109375 17.2879464285714  Z M 14.16162109375 17.2879464285714  C 14.3038736979167 17.1465773809524  14.375 16.9791666666667  14.375 16.7857142857143  L 14.375 12.1428571428571  C 14.375 11.9494047619048  14.3038736979167 11.781994047619  14.16162109375 11.640625  C 14.0193684895833 11.499255952381  13.8509114583333 11.4285714285714  13.65625 11.4285714285714  C 13.4615885416667 11.4285714285714  13.2931315104167 11.499255952381  13.15087890625 11.640625  C 13.0086263020833 11.781994047619  12.9375 11.9494047619048  12.9375 12.1428571428571  L 12.9375 16.7857142857143  C 12.9375 16.9791666666667  13.0086263020833 17.1465773809524  13.15087890625 17.2879464285714  C 13.2931315104167 17.4293154761905  13.4615885416667 17.5  13.65625 17.5  C 13.8509114583333 17.5  14.0193684895833 17.4293154761905  14.16162109375 17.2879464285714  Z M 18.097900390625 17.3102678571429  C 18.2364095052083 17.1837797619048  18.3131510416667 17.0275297619048  18.328125 16.8415178571429  L 18.6875 12.1986607142857  C 18.7024739583333 12.0052083333333  18.6444498697917 11.8322172619048  18.513427734375 11.6796875  C 18.3824055989583 11.5271577380952  18.2195638020833 11.4434523809524  18.02490234375 11.4285714285714  C 17.8302408854167 11.4136904761905  17.6561686197917 11.4713541666667  17.502685546875 11.6015625  C 17.3492024739583 11.7317708333333  17.2649739583333 11.8936011904762  17.25 12.0870535714286  L 16.890625 16.7299107142857  C 16.8756510416667 16.9233630952381  16.9336751302083 17.0963541666667  17.064697265625 17.2488839285714  C 17.1957194010417 17.4014136904762  17.3585611979167 17.485119047619  17.55322265625 17.5  L 17.609375 17.5  C 17.7965494791667 17.5  17.9593912760417 17.436755952381  18.097900390625 17.3102678571429  Z M 5.856689453125 2.45535714285714  C 5.598388671875 2.66369047619047  5.42805989583333 2.93154761904762  5.345703125 3.25892857142857  L 4.30126953125 7.85714285714286  L 2.81884765625 7.85714285714286  L 3.953125 2.93526785714286  C 4.09537760416667 2.28050595238095  4.42854817708333 1.74665178571429  4.95263671875 1.33370535714286  C 5.47672526041667 0.920758928571428  6.07568359375 0.714285714285714  6.74951171875 0.714285714285714  L 8.625 0.714285714285714  C 8.625 0.520833333333333  8.69612630208333 0.353422619047616  8.83837890625 0.212053571428572  C 8.98063151041667 0.0706845238095255  9.14908854166667 0  9.34375 0  L 13.65625 0  C 13.8509114583333 0  14.0193684895833 0.0706845238095255  14.16162109375 0.212053571428572  C 14.3038736979167 0.353422619047616  14.375 0.520833333333333  14.375 0.714285714285714  L 16.25048828125 0.714285714285714  C 16.92431640625 0.714285714285714  17.5232747395833 0.920758928571428  18.04736328125 1.33370535714286  C 18.5714518229167 1.74665178571429  18.9046223958333 2.28050595238095  19.046875 2.93526785714286  L 20.18115234375 7.85714285714286  L 18.69873046875 7.85714285714286  L 17.654296875 3.25892857142857  C 17.5719401041667 2.93154761904762  17.401611328125 2.66369047619047  17.143310546875 2.45535714285714  C 16.885009765625 2.24702380952381  16.58740234375 2.14285714285714  16.25048828125 2.14285714285714  L 14.375 2.14285714285714  C 14.375 2.33630952380952  14.3038736979167 2.50372023809524  14.16162109375 2.64508928571429  C 14.0193684895833 2.78645833333333  13.8509114583333 2.85714285714286  13.65625 2.85714285714286  L 9.34375 2.85714285714286  C 9.14908854166667 2.85714285714286  8.98063151041667 2.78645833333333  8.83837890625 2.64508928571429  C 8.69612630208333 2.50372023809524  8.625 2.33630952380952  8.625 2.14285714285714  L 6.74951171875 2.14285714285714  C 6.41259765625 2.14285714285714  6.114990234375 2.24702380952381  5.856689453125 2.45535714285714  Z " fill-rule="nonzero" fill="#aaaaaa" stroke="none" fill-opacity="0.505882352941176" transform="matrix(1 0 0 1 294 1465 )" />
  </g>
</svg>