<?xml version="1.0" encoding="utf-8"?>
<svg version="1.1" xmlns:xlink="http://www.w3.org/1999/xlink" width="12px" height="12px" viewBox="620 1913  12 12" xmlns="http://www.w3.org/2000/svg">
  <path d="M 626 1913  C 629.36 1913  632 1915.64  632 1919  C 632 1922.36  629.36 1925  626 1925  C 622.64 1925  620 1922.36  620 1919  C 620 1915.64  622.64 1913  626 1913  Z " fill-rule="nonzero" fill="#ffffff" stroke="none" />
  <path d="M 626 1913.5  C 629.08 1913.5  631.5 1915.92  631.5 1919  C 631.5 1922.08  629.08 1924.5  626 1924.5  C 622.92 1924.5  620.5 1922.08  620.5 1919  C 620.5 1915.92  622.92 1913.5  626 1913.5  Z " stroke-width="1" stroke="#797979" fill="none" />
  <path d="M 626 1922  C 624.32 1922  623 1920.68  623 1919  C 623 1917.32  624.32 1916  626 1916  C 627.68 1916  629 1917.32  629 1919  C 629 1920.68  627.68 1922  626 1922  " fill-rule="nonzero" fill="#797979" stroke="none" />
</svg>