<?xml version="1.0" encoding="utf-8"?>
<svg version="1.1" xmlns:xlink="http://www.w3.org/1999/xlink" width="30px" height="26px" xmlns="http://www.w3.org/2000/svg">
  <g transform="matrix(1 0 0 1 -1091 -73 )">
    <path d="M 1.875 11.1428571428571  L 28.125 11.1428571428571  C 28.642578125 11.1428571428571  29.08447265625 11.32421875  29.45068359375 11.6869419642857  C 29.81689453125 12.0496651785714  30 12.4873511904762  30 13  C 30 13.5126488095238  29.81689453125 13.9503348214286  29.45068359375 14.3130580357143  C 29.08447265625 14.67578125  28.642578125 14.8571428571429  28.125 14.8571428571429  L 27.9052734375 14.8571428571429  L 26.220703125 24.4620535714286  C 26.142578125 24.906994047619  25.927734375 25.2745535714286  25.576171875 25.5647321428571  C 25.224609375 25.8549107142857  24.82421875 26  24.375 26  L 5.625 26  C 5.17578125 26  4.775390625 25.8549107142857  4.423828125 25.5647321428571  C 4.072265625 25.2745535714286  3.857421875 24.906994047619  3.779296875 24.4620535714286  L 2.0947265625 14.8571428571429  L 1.875 14.8571428571429  C 1.357421875 14.8571428571429  0.91552734375 14.67578125  0.54931640625 14.3130580357143  C 0.18310546875 13.9503348214286  0 13.5126488095238  0 13  C 0 12.4873511904762  0.18310546875 12.0496651785714  0.54931640625 11.6869419642857  C 0.91552734375 11.32421875  1.357421875 11.1428571428571  1.875 11.1428571428571  Z M 7.03125 22.75  L 7.1044921875 22.75  C 7.3583984375 22.7306547619048  7.57080078125 22.621837797619  7.74169921875 22.4235491071429  C 7.91259765625 22.2252604166667  7.98828125 22.0003720238095  7.96875 21.7488839285714  L 7.5 15.7131696428571  C 7.48046875 15.461681547619  7.37060546875 15.2513020833333  7.17041015625 15.08203125  C 6.97021484375 14.9127604166667  6.7431640625 14.8377976190476  6.4892578125 14.8571428571429  C 6.2353515625 14.8764880952381  6.02294921875 14.9853050595238  5.85205078125 15.18359375  C 5.68115234375 15.3818824404762  5.60546875 15.6067708333333  5.625 15.8582589285714  L 6.09375 21.8939732142857  C 6.11328125 22.1357886904762  6.21337890625 22.3389136904762  6.39404296875 22.5033482142857  C 6.57470703125 22.6677827380952  6.787109375 22.75  7.03125 22.75  Z M 12.8466796875 22.4743303571429  C 13.0322265625 22.2905505952381  13.125 22.0729166666667  13.125 21.8214285714286  L 13.125 15.7857142857143  C 13.125 15.5342261904762  13.0322265625 15.3165922619048  12.8466796875 15.1328125  C 12.6611328125 14.9490327380952  12.44140625 14.8571428571429  12.1875 14.8571428571429  C 11.93359375 14.8571428571429  11.7138671875 14.9490327380952  11.5283203125 15.1328125  C 11.3427734375 15.3165922619048  11.25 15.5342261904762  11.25 15.7857142857143  L 11.25 21.8214285714286  C 11.25 22.0729166666667  11.3427734375 22.2905505952381  11.5283203125 22.4743303571429  C 11.7138671875 22.6581101190476  11.93359375 22.75  12.1875 22.75  C 12.44140625 22.75  12.6611328125 22.6581101190476  12.8466796875 22.4743303571429  Z M 18.4716796875 22.4743303571429  C 18.6572265625 22.2905505952381  18.75 22.0729166666667  18.75 21.8214285714286  L 18.75 15.7857142857143  C 18.75 15.5342261904762  18.6572265625 15.3165922619048  18.4716796875 15.1328125  C 18.2861328125 14.9490327380952  18.06640625 14.8571428571429  17.8125 14.8571428571429  C 17.55859375 14.8571428571429  17.3388671875 14.9490327380952  17.1533203125 15.1328125  C 16.9677734375 15.3165922619048  16.875 15.5342261904762  16.875 15.7857142857143  L 16.875 21.8214285714286  C 16.875 22.0729166666667  16.9677734375 22.2905505952381  17.1533203125 22.4743303571429  C 17.3388671875 22.6581101190476  17.55859375 22.75  17.8125 22.75  C 18.06640625 22.75  18.2861328125 22.6581101190476  18.4716796875 22.4743303571429  Z M 23.60595703125 22.5033482142857  C 23.78662109375 22.3389136904762  23.88671875 22.1357886904762  23.90625 21.8939732142857  L 24.375 15.8582589285714  C 24.39453125 15.6067708333333  24.31884765625 15.3818824404762  24.14794921875 15.18359375  C 23.97705078125 14.9853050595238  23.7646484375 14.8764880952381  23.5107421875 14.8571428571429  C 23.2568359375 14.8377976190476  23.02978515625 14.9127604166667  22.82958984375 15.08203125  C 22.62939453125 15.2513020833333  22.51953125 15.461681547619  22.5 15.7131696428571  L 22.03125 21.7488839285714  C 22.01171875 22.0003720238095  22.08740234375 22.2252604166667  22.25830078125 22.4235491071429  C 22.42919921875 22.621837797619  22.6416015625 22.7306547619048  22.8955078125 22.75  L 22.96875 22.75  C 23.212890625 22.75  23.42529296875 22.6677827380952  23.60595703125 22.5033482142857  Z M 7.63916015625 3.19196428571428  C 7.30224609375 3.46279761904762  7.080078125 3.8110119047619  6.97265625 4.23660714285714  L 5.6103515625 10.2142857142857  L 3.6767578125 10.2142857142857  L 5.15625 3.81584821428572  C 5.341796875 2.96465773809524  5.7763671875 2.27064732142857  6.4599609375 1.73381696428572  C 7.1435546875 1.19698660714286  7.9248046875 0.928571428571428  8.8037109375 0.928571428571428  L 11.25 0.928571428571428  C 11.25 0.677083333333332  11.3427734375 0.459449404761901  11.5283203125 0.275669642857144  C 11.7138671875 0.0918898809523832  11.93359375 0  12.1875 0  L 17.8125 0  C 18.06640625 0  18.2861328125 0.0918898809523832  18.4716796875 0.275669642857144  C 18.6572265625 0.459449404761901  18.75 0.677083333333332  18.75 0.928571428571428  L 21.1962890625 0.928571428571428  C 22.0751953125 0.928571428571428  22.8564453125 1.19698660714286  23.5400390625 1.73381696428572  C 24.2236328125 2.27064732142857  24.658203125 2.96465773809524  24.84375 3.81584821428572  L 26.3232421875 10.2142857142857  L 24.3896484375 10.2142857142857  L 23.02734375 4.23660714285714  C 22.919921875 3.8110119047619  22.69775390625 3.46279761904762  22.36083984375 3.19196428571428  C 22.02392578125 2.92113095238095  21.6357421875 2.78571428571428  21.1962890625 2.78571428571428  L 18.75 2.78571428571428  C 18.75 3.03720238095238  18.6572265625 3.25483630952381  18.4716796875 3.43861607142857  C 18.2861328125 3.62239583333333  18.06640625 3.71428571428572  17.8125 3.71428571428572  L 12.1875 3.71428571428572  C 11.93359375 3.71428571428572  11.7138671875 3.62239583333333  11.5283203125 3.43861607142857  C 11.3427734375 3.25483630952381  11.25 3.03720238095238  11.25 2.78571428571428  L 8.8037109375 2.78571428571428  C 8.3642578125 2.78571428571428  7.97607421875 2.92113095238095  7.63916015625 3.19196428571428  Z " fill-rule="nonzero" fill="#333333" stroke="none" transform="matrix(1 0 0 1 1091 73 )" />
  </g>
</svg>