<?xml version="1.0" encoding="utf-8"?>
<svg version="1.1" xmlns:xlink="http://www.w3.org/1999/xlink" width="18px" height="18px" xmlns="http://www.w3.org/2000/svg">
  <g transform="matrix(1 0 0 1 -698 -4634 )">
    <path d="M 707 4634  C 712.04 4634  716 4637.96  716 4643  C 716 4648.04  712.04 4652  707 4652  C 701.96 4652  698 4648.04  698 4643  C 698 4637.96  701.96 4634  707 4634  Z " fill-rule="nonzero" fill="#aaaaaa" stroke="none" />
    <path d="M 707 4634.5  C 711.76 4634.5  715.5 4638.24  715.5 4643  C 715.5 4647.76  711.76 4651.5  707 4651.5  C 702.24 4651.5  698.5 4647.76  698.5 4643  C 698.5 4638.24  702.24 4634.5  707 4634.5  Z " stroke-width="1" stroke="#f2f2f2" fill="none" />
  </g>
</svg>