<?xml version="1.0" encoding="utf-8"?>
<svg version="1.1" xmlns:xlink="http://www.w3.org/1999/xlink" width="29px" height="24px" xmlns="http://www.w3.org/2000/svg">
  <g transform="matrix(1 0 0 1 -1014 -5782 )">
    <path d="M 27.8323317307692 7.96022727272727  C 28.6107772435897 9.55113636363636  29 11.2045454545455  29 12.9204545454545  C 29 14.8068181818182  28.6514423076923 16.5909090909091  27.9543269230769 18.2727272727273  L 27.6057692307692 19.1079545454545  L 24.3816105769231 19.6704545454545  C 24.1260016025641 20.6136363636364  23.6002604166667 21.3892045454545  22.8043870192308 21.9971590909091  C 22.0085136217949 22.6051136363636  21.099358974359 22.9090909090909  20.0769230769231 22.9090909090909  L 20.0769230769231 23.4545454545455  C 20.0769230769231 23.6136363636364  20.0246394230769 23.7443181818182  19.9200721153846 23.8465909090909  C 19.8155048076923 23.9488636363636  19.681891025641 24  19.5192307692308 24  L 18.4038461538462 24  C 18.2411858974359 24  18.1075721153846 23.9488636363636  18.0030048076923 23.8465909090909  C 17.8984375 23.7443181818182  17.8461538461538 23.6136363636364  17.8461538461538 23.4545454545455  L 17.8461538461538 13.6363636363636  C 17.8461538461538 13.4772727272727  17.8984375 13.3465909090909  18.0030048076923 13.2443181818182  C 18.1075721153846 13.1420454545455  18.2411858974359 13.0909090909091  18.4038461538462 13.0909090909091  L 19.5192307692308 13.0909090909091  C 19.681891025641 13.0909090909091  19.8155048076923 13.1420454545455  19.9200721153846 13.2443181818182  C 20.0246394230769 13.3465909090909  20.0769230769231 13.4772727272727  20.0769230769231 13.6363636363636  L 20.0769230769231 14.1818181818182  C 20.9018429487179 14.1818181818182  21.6570512820513 14.3835227272727  22.3425480769231 14.7869318181818  C 23.0280448717949 15.1903409090909  23.5683092948718 15.7329545454545  23.9633413461538 16.4147727272727  L 25.1484375 16.2102272727273  C 25.4853766025641 15.1306818181818  25.6538461538462 14.0340909090909  25.6538461538462 12.9204545454545  C 25.6538461538462 11.2386363636364  25.1426282051282 9.65340909090909  24.1201923076923 8.16477272727273  C 23.0977564102564 6.67613636363636  21.7238581730769 5.48863636363636  19.9984975961538 4.60227272727273  C 18.2731370192308 3.71590909090909  16.4403044871795 3.27272727272727  14.5 3.27272727272727  C 12.5596955128205 3.27272727272727  10.7268629807692 3.71590909090909  9.00150240384616 4.60227272727273  C 7.27614182692308 5.48863636363636  5.90224358974359 6.67613636363636  4.87980769230769 8.16477272727273  C 3.85737179487179 9.65340909090909  3.34615384615385 11.2386363636364  3.34615384615385 12.9204545454545  C 3.34615384615385 14.0340909090909  3.5146233974359 15.1306818181818  3.8515625 16.2102272727273  L 5.03665865384615 16.4147727272727  C 5.43169070512821 15.7329545454545  5.97195512820513 15.1903409090909  6.65745192307692 14.7869318181818  C 7.34294871794872 14.3835227272727  8.09815705128205 14.1818181818182  8.92307692307692 14.1818181818182  L 8.92307692307692 13.6363636363636  C 8.92307692307692 13.4772727272727  8.97536057692308 13.3465909090909  9.07992788461539 13.2443181818182  C 9.18449519230769 13.1420454545455  9.31810897435897 13.0909090909091  9.48076923076923 13.0909090909091  L 10.5961538461538 13.0909090909091  C 10.7588141025641 13.0909090909091  10.8924278846154 13.1420454545455  10.9969951923077 13.2443181818182  C 11.1015625 13.3465909090909  11.1538461538462 13.4772727272727  11.1538461538462 13.6363636363636  L 11.1538461538462 23.4545454545455  C 11.1538461538462 23.6136363636364  11.1015625 23.7443181818182  10.9969951923077 23.8465909090909  C 10.8924278846154 23.9488636363636  10.7588141025641 24  10.5961538461538 24  L 9.48076923076923 24  C 9.31810897435897 24  9.18449519230769 23.9488636363636  9.07992788461539 23.8465909090909  C 8.97536057692308 23.7443181818182  8.92307692307692 23.6136363636364  8.92307692307692 23.4545454545455  L 8.92307692307692 22.9090909090909  C 7.90064102564103 22.9090909090909  6.99148637820513 22.6051136363636  6.19561298076923 21.9971590909091  C 5.39973958333333 21.3892045454545  4.8739983974359 20.6136363636364  4.61838942307692 19.6704545454545  L 1.39423076923077 19.1079545454545  L 1.04567307692308 18.2727272727273  C 0.348557692307692 16.5909090909091  0 14.8068181818182  0 12.9204545454545  C 0 11.2045454545455  0.389222756410256 9.55113636363636  1.16766826923077 7.96022727272727  C 1.94611378205128 6.36931818181818  2.98597756410256 4.99147727272727  4.28725961538462 3.82670454545455  C 5.58854166666667 2.66193181818182  7.1338141025641 1.73295454545454  8.92307692307692 1.03977272727273  C 10.7123397435897 0.346590909090908  12.5713141025641 0  14.5 0  C 16.4286858974359 0  18.2876602564103 0.346590909090908  20.0769230769231 1.03977272727273  C 21.8661858974359 1.73295454545454  23.4114583333333 2.66193181818182  24.7127403846154 3.82670454545455  C 26.0140224358974 4.99147727272727  27.0538862179487 6.36931818181818  27.8323317307692 7.96022727272727  Z " fill-rule="nonzero" fill="#000000" stroke="none" transform="matrix(1 0 0 1 1014 5782 )" />
  </g>
</svg>