<?xml version="1.0" encoding="utf-8"?>
<svg version="1.1" xmlns:xlink="http://www.w3.org/1999/xlink" width="20px" height="17px" xmlns="http://www.w3.org/2000/svg">
  <g transform="matrix(1 0 0 1 -150 -2628 )">
    <path d="M 1.25 7.28571428571429  L 18.75 7.28571428571429  C 19.0950520833333 7.28571428571429  19.3896484375 7.404296875  19.6337890625 7.64146205357143  C 19.8779296875 7.87862723214286  20 8.16480654761905  20 8.5  C 20 8.83519345238095  19.8779296875 9.12137276785714  19.6337890625 9.35853794642857  C 19.3896484375 9.595703125  19.0950520833333 9.71428571428571  18.75 9.71428571428571  L 18.603515625 9.71428571428571  L 17.48046875 15.9944196428571  C 17.4283854166667 16.2853422619048  17.28515625 16.5256696428571  17.05078125 16.7154017857143  C 16.81640625 16.9051339285714  16.5494791666667 17  16.25 17  L 3.75 17  C 3.45052083333333 17  3.18359375 16.9051339285714  2.94921875 16.7154017857143  C 2.71484375 16.5256696428571  2.57161458333333 16.2853422619048  2.51953125 15.9944196428571  L 1.396484375 9.71428571428571  L 1.25 9.71428571428571  C 0.904947916666667 9.71428571428571  0.6103515625 9.595703125  0.3662109375 9.35853794642857  C 0.1220703125 9.12137276785714  0 8.83519345238095  0 8.5  C 0 8.16480654761905  0.1220703125 7.87862723214286  0.3662109375 7.64146205357143  C 0.6103515625 7.404296875  0.904947916666667 7.28571428571429  1.25 7.28571428571429  Z M 4.6875 14.875  L 4.736328125 14.875  C 4.90559895833333 14.8623511904762  5.04720052083333 14.7912016369048  5.1611328125 14.6615513392857  C 5.27506510416667 14.5319010416667  5.32552083333333 14.3848586309524  5.3125 14.2204241071429  L 5 10.2739955357143  C 4.98697916666667 10.1095610119048  4.91373697916667 9.97200520833333  4.7802734375 9.861328125  C 4.64680989583333 9.75065104166667  4.49544270833333 9.7016369047619  4.326171875 9.71428571428571  C 4.15690104166667 9.72693452380952  4.01529947916667 9.79808407738095  3.9013671875 9.927734375  C 3.78743489583333 10.057384672619  3.73697916666667 10.2044270833333  3.75 10.3688616071429  L 4.0625 14.3152901785714  C 4.07552083333333 14.473400297619  4.14225260416667 14.606212797619  4.2626953125 14.7137276785714  C 4.38313802083333 14.8212425595238  4.52473958333333 14.875  4.6875 14.875  Z M 8.564453125 14.6947544642857  C 8.68815104166667 14.5745907738095  8.75 14.4322916666667  8.75 14.2678571428571  L 8.75 10.3214285714286  C 8.75 10.156994047619  8.68815104166667 10.0146949404762  8.564453125 9.89453125  C 8.44075520833334 9.77436755952381  8.29427083333334 9.71428571428571  8.125 9.71428571428571  C 7.95572916666667 9.71428571428571  7.80924479166667 9.77436755952381  7.685546875 9.89453125  C 7.56184895833333 10.0146949404762  7.5 10.156994047619  7.5 10.3214285714286  L 7.5 14.2678571428571  C 7.5 14.4322916666667  7.56184895833333 14.5745907738095  7.685546875 14.6947544642857  C 7.80924479166667 14.8149181547619  7.95572916666667 14.875  8.125 14.875  C 8.29427083333334 14.875  8.44075520833334 14.8149181547619  8.564453125 14.6947544642857  Z M 12.314453125 14.6947544642857  C 12.4381510416667 14.5745907738095  12.5 14.4322916666667  12.5 14.2678571428571  L 12.5 10.3214285714286  C 12.5 10.156994047619  12.4381510416667 10.0146949404762  12.314453125 9.89453125  C 12.1907552083333 9.77436755952381  12.0442708333333 9.71428571428571  11.875 9.71428571428571  C 11.7057291666667 9.71428571428571  11.5592447916667 9.77436755952381  11.435546875 9.89453125  C 11.3118489583333 10.0146949404762  11.25 10.156994047619  11.25 10.3214285714286  L 11.25 14.2678571428571  C 11.25 14.4322916666667  11.3118489583333 14.5745907738095  11.435546875 14.6947544642857  C 11.5592447916667 14.8149181547619  11.7057291666667 14.875  11.875 14.875  C 12.0442708333333 14.875  12.1907552083333 14.8149181547619  12.314453125 14.6947544642857  Z M 15.7373046875 14.7137276785714  C 15.8577473958333 14.606212797619  15.9244791666667 14.473400297619  15.9375 14.3152901785714  L 16.25 10.3688616071429  C 16.2630208333333 10.2044270833333  16.2125651041667 10.057384672619  16.0986328125 9.927734375  C 15.9847005208333 9.79808407738095  15.8430989583333 9.72693452380952  15.673828125 9.71428571428571  C 15.5045572916667 9.7016369047619  15.3531901041667 9.75065104166667  15.2197265625 9.861328125  C 15.0862630208333 9.97200520833333  15.0130208333333 10.1095610119048  15 10.2739955357143  L 14.6875 14.2204241071429  C 14.6744791666667 14.3848586309524  14.7249348958333 14.5319010416667  14.8388671875 14.6615513392857  C 14.9527994791667 14.7912016369048  15.0944010416667 14.8623511904762  15.263671875 14.875  L 15.3125 14.875  C 15.4752604166667 14.875  15.6168619791667 14.8212425595238  15.7373046875 14.7137276785714  Z M 5.0927734375 2.08705357142857  C 4.8681640625 2.2641369047619  4.72005208333333 2.49181547619047  4.6484375 2.77008928571429  L 3.740234375 6.67857142857143  L 2.451171875 6.67857142857143  L 3.4375 2.49497767857143  C 3.56119791666667 1.93843005952381  3.85091145833333 1.48465401785714  4.306640625 1.13364955357143  C 4.76236979166667 0.782645089285714  5.283203125 0.607142857142857  5.869140625 0.607142857142857  L 7.5 0.607142857142857  C 7.5 0.442708333333333  7.56184895833333 0.300409226190474  7.685546875 0.180245535714286  C 7.80924479166667 0.0600818452380967  7.95572916666667 0  8.125 0  L 11.875 0  C 12.0442708333333 0  12.1907552083333 0.0600818452380967  12.314453125 0.180245535714286  C 12.4381510416667 0.300409226190474  12.5 0.442708333333333  12.5 0.607142857142857  L 14.130859375 0.607142857142857  C 14.716796875 0.607142857142857  15.2376302083333 0.782645089285714  15.693359375 1.13364955357143  C 16.1490885416667 1.48465401785714  16.4388020833333 1.93843005952381  16.5625 2.49497767857143  L 17.548828125 6.67857142857143  L 16.259765625 6.67857142857143  L 15.3515625 2.77008928571429  C 15.2799479166667 2.49181547619047  15.1318359375 2.2641369047619  14.9072265625 2.08705357142857  C 14.6826171875 1.90997023809524  14.423828125 1.82142857142857  14.130859375 1.82142857142857  L 12.5 1.82142857142857  C 12.5 1.98586309523809  12.4381510416667 2.12816220238095  12.314453125 2.24832589285714  C 12.1907552083333 2.36848958333333  12.0442708333333 2.42857142857143  11.875 2.42857142857143  L 8.125 2.42857142857143  C 7.95572916666667 2.42857142857143  7.80924479166667 2.36848958333333  7.685546875 2.24832589285714  C 7.56184895833333 2.12816220238095  7.5 1.98586309523809  7.5 1.82142857142857  L 5.869140625 1.82142857142857  C 5.576171875 1.82142857142857  5.3173828125 1.90997023809524  5.0927734375 2.08705357142857  Z " fill-rule="nonzero" fill="#aaaaaa" stroke="none" fill-opacity="0.505882352941176" transform="matrix(1 0 0 1 150 2628 )" />
  </g>
</svg>