<?xml version="1.0" encoding="utf-8"?>
<svg version="1.1" xmlns:xlink="http://www.w3.org/1999/xlink" width="18px" height="18px" xmlns="http://www.w3.org/2000/svg">
  <g transform="matrix(1 0 0 1 -248 -3914 )">
    <path d="M 257 3914  C 262.04 3914  266 3917.96  266 3923  C 266 3928.04  262.04 3932  257 3932  C 251.96 3932  248 3928.04  248 3923  C 248 3917.96  251.96 3914  257 3914  Z " fill-rule="nonzero" fill="#aaaaaa" stroke="none" />
    <path d="M 257 3914.5  C 261.76 3914.5  265.5 3918.24  265.5 3923  C 265.5 3927.76  261.76 3931.5  257 3931.5  C 252.24 3931.5  248.5 3927.76  248.5 3923  C 248.5 3918.24  252.24 3914.5  257 3914.5  Z " stroke-width="1" stroke="#f2f2f2" fill="none" />
  </g>
</svg>