<?xml version="1.0" encoding="utf-8"?>
<svg version="1.1" xmlns:xlink="http://www.w3.org/1999/xlink" width="15px" height="15px" xmlns="http://www.w3.org/2000/svg">
  <g transform="matrix(1 0 0 1 -88 -4718 )">
    <path d="M 14.900390625 10.8447265625  C 14.966796875 11.3362630208333  15 11.8587239583333  15 12.412109375  C 15 13.1217447916667  14.755859375 13.73046875  14.267578125 14.23828125  C 13.779296875 14.74609375  13.19140625 15  12.50390625 15  L 2.49609375 15  C 1.80859375 15  1.220703125 14.74609375  0.732421875 14.23828125  C 0.244140625 13.73046875  0 13.1217447916667  0 12.412109375  C 0 11.8587239583333  0.0332031250000001 11.3362630208333  0.0996093750000001 10.8447265625  C 0.166015625 10.3531901041667  0.2890625 9.8583984375  0.46875 9.3603515625  C 0.6484375 8.8623046875  0.876953125 8.43587239583333  1.154296875 8.0810546875  C 1.431640625 7.72623697916667  1.798828125 7.4365234375  2.255859375 7.2119140625  C 2.712890625 6.9873046875  3.23828125 6.875  3.83203125 6.875  C 4.85546875 7.70833333333333  6.078125 8.125  7.5 8.125  C 8.921875 8.125  10.14453125 7.70833333333333  11.16796875 6.875  C 11.76171875 6.875  12.287109375 6.9873046875  12.744140625 7.2119140625  C 13.201171875 7.4365234375  13.568359375 7.72623697916667  13.845703125 8.0810546875  C 14.123046875 8.43587239583333  14.3515625 8.8623046875  14.53125 9.3603515625  C 14.7109375 9.8583984375  14.833984375 10.3531901041667  14.900390625 10.8447265625  Z M 10.681640625 1.0986328125  C 11.560546875 1.8310546875  12 2.71484375  12 3.75  C 12 4.78515625  11.560546875 5.6689453125  10.681640625 6.4013671875  C 9.802734375 7.1337890625  8.7421875 7.5  7.5 7.5  C 6.2578125 7.5  5.197265625 7.1337890625  4.318359375 6.4013671875  C 3.439453125 5.6689453125  3 4.78515625  3 3.75  C 3 2.71484375  3.439453125 1.8310546875  4.318359375 1.0986328125  C 5.197265625 0.3662109375  6.2578125 0  7.5 0  C 8.7421875 0  9.802734375 0.3662109375  10.681640625 1.0986328125  Z " fill-rule="nonzero" fill="#d7d7d7" stroke="none" transform="matrix(1 0 0 1 88 4718 )" />
  </g>
</svg>