<?xml version="1.0" encoding="utf-8"?>
<svg version="1.1" xmlns:xlink="http://www.w3.org/1999/xlink" width="10px" height="12px" xmlns="http://www.w3.org/2000/svg">
  <g transform="matrix(1 0 0 1 -198 -4948 )">
    <path d="M 9.93359375 8.67578125  C 9.97786458333333 9.06901041666667  10 9.48697916666667  10 9.9296875  C 10 10.4973958333333  9.83723958333333 10.984375  9.51171875 11.390625  C 9.18619791666667 11.796875  8.79427083333333 12  8.3359375 12  L 1.6640625 12  C 1.20572916666667 12  0.813802083333333 11.796875  0.48828125 11.390625  C 0.162760416666667 10.984375  0 10.4973958333333  0 9.9296875  C 0 9.48697916666667  0.0221354166666667 9.06901041666667  0.0664062500000001 8.67578125  C 0.110677083333333 8.28255208333333  0.192708333333333 7.88671875  0.3125 7.48828125  C 0.432291666666667 7.08984375  0.584635416666667 6.74869791666667  0.76953125 6.46484375  C 0.954427083333333 6.18098958333333  1.19921875 5.94921875  1.50390625 5.76953125  C 1.80859375 5.58984375  2.15885416666667 5.5  2.5546875 5.5  C 3.23697916666667 6.16666666666667  4.05208333333333 6.5  5 6.5  C 5.94791666666667 6.5  6.76302083333333 6.16666666666667  7.4453125 5.5  C 7.84114583333333 5.5  8.19140625 5.58984375  8.49609375 5.76953125  C 8.80078125 5.94921875  9.04557291666667 6.18098958333333  9.23046875 6.46484375  C 9.41536458333333 6.74869791666667  9.56770833333333 7.08984375  9.6875 7.48828125  C 9.80729166666667 7.88671875  9.88932291666667 8.28255208333333  9.93359375 8.67578125  Z M 7.12109375 0.87890625  C 7.70703125 1.46484375  8 2.171875  8 3  C 8 3.828125  7.70703125 4.53515625  7.12109375 5.12109375  C 6.53515625 5.70703125  5.828125 6  5 6  C 4.171875 6  3.46484375 5.70703125  2.87890625 5.12109375  C 2.29296875 4.53515625  2 3.828125  2 3  C 2 2.171875  2.29296875 1.46484375  2.87890625 0.87890625  C 3.46484375 0.29296875  4.171875 0  5 0  C 5.828125 0  6.53515625 0.29296875  7.12109375 0.87890625  Z " fill-rule="nonzero" fill="#d7d7d7" stroke="none" transform="matrix(1 0 0 1 198 4948 )" />
  </g>
</svg>