<?xml version="1.0" encoding="utf-8"?>
<svg version="1.1" xmlns:xlink="http://www.w3.org/1999/xlink" width="24px" height="24px" xmlns="http://www.w3.org/2000/svg">
  <g transform="matrix(1 0 0 1 -25 -5275 )">
    <path d="M 19.4598214285714 12.0602678571429  C 19.5758928571429 12.0736607142857  19.6696428571429 12.1294642857143  19.7410714285714 12.2276785714286  L 20.2633928571429 12.9107142857143  C 20.3348214285714 13.0089285714286  20.3638392857143 13.1138392857143  20.3504464285714 13.2254464285714  C 20.3370535714286 13.3370535714286  20.2857142857143 13.4285714285714  20.1964285714286 13.5  C 19.8125 13.8035714285714  19.2477678571429 14.2433035714286  18.5022321428571 14.8191964285714  C 17.7566964285714 15.3950892857143  17.1026785714286 15.8995535714286  16.5401785714286 16.3325892857143  C 15.9776785714286 16.765625  15.6785714285714 16.9955357142857  15.6428571428571 17.0223214285714  C 15.2946428571429 17.3080357142857  15.0267857142857 17.5223214285714  14.8392857142857 17.6651785714286  C 14.6517857142857 17.8080357142857  14.3816964285714 17.9910714285714  14.0290178571429 18.2142857142857  C 13.6763392857143 18.4375  13.3348214285714 18.6004464285714  13.0044642857143 18.703125  C 12.6741071428571 18.8058035714286  12.34375 18.8571428571429  12.0133928571429 18.8571428571429  L 12 18.8571428571429  L 11.9866071428571 18.8571428571429  C 11.65625 18.8571428571429  11.3258928571429 18.8058035714286  10.9955357142857 18.703125  C 10.6651785714286 18.6004464285714  10.3258928571429 18.4375  9.97767857142857 18.2142857142857  C 9.62946428571428 17.9910714285714  9.35714285714286 17.8058035714286  9.16071428571428 17.6584821428571  C 8.96428571428572 17.5111607142857  8.69642857142857 17.2991071428571  8.35714285714286 17.0223214285714  C 8.3125 16.9866071428571  8.02232142857143 16.7611607142857  7.48660714285714 16.3459821428571  C 6.95089285714286 15.9308035714286  6.31026785714286 15.4352678571429  5.56473214285714 14.859375  C 4.81919642857143 14.2834821428571  4.27232142857143 13.8616071428571  3.92410714285714 13.59375  C 3.82589285714286 13.5223214285714  3.77008928571429 13.4308035714286  3.75669642857143 13.3191964285714  C 3.74330357142857 13.2075892857143  3.77232142857143 13.1026785714286  3.84375 13.0044642857143  L 4.33928571428571 12.3080357142857  C 4.41071428571429 12.2098214285714  4.50669642857143 12.1517857142857  4.62723214285714 12.1339285714286  C 4.74776785714286 12.1160714285714  4.85714285714286 12.1473214285714  4.95535714285714 12.2276785714286  C 5.79464285714286 12.8794642857143  7.16071428571429 13.9330357142857  9.05357142857143 15.3883928571429  C 9.09821428571429 15.4241071428571  9.29241071428572 15.5803571428571  9.63616071428572 15.8571428571429  C 9.97991071428572 16.1339285714286  10.25 16.3415178571429  10.4464285714286 16.4799107142857  C 10.6428571428571 16.6183035714286  10.8950892857143 16.7633928571429  11.203125 16.9151785714286  C 11.5111607142857 17.0669642857143  11.7723214285714 17.1428571428571  11.9866071428571 17.1428571428571  L 12 17.1428571428571  L 12.0133928571429 17.1428571428571  C 12.2276785714286 17.1428571428571  12.4888392857143 17.0669642857143  12.796875 16.9151785714286  C 13.1049107142857 16.7633928571429  13.3571428571429 16.6183035714286  13.5535714285714 16.4799107142857  C 13.75 16.3415178571429  14.0200892857143 16.1339285714286  14.3638392857143 15.8571428571429  C 14.7075892857143 15.5803571428571  14.9017857142857 15.4241071428571  14.9464285714286 15.3883928571429  C 17.25 13.6205357142857  18.6473214285714 12.5401785714286  19.1383928571429 12.1473214285714  C 19.2366071428571 12.0758928571429  19.34375 12.046875  19.4598214285714 12.0602678571429  Z M 22.1584821428571 22.1584821428571  C 22.2433035714286 22.0736607142857  22.2857142857143 21.9732142857143  22 21.8571428571429  L 22 9.42857142857143  C 21.4821428571429 8.6875  20.7723214285714 8.06696428571428  20.15625 7.56696428571429  C 19.34375 6.90625  17.6071428571429 5.54910714285714  14.9464285714286 3.49553571428571  C 14.9196428571429 3.47767857142857  14.7276785714286 3.32142857142857  14.3705357142857 3.02678571428571  C 14.0133928571429 2.73214285714286  13.7410714285714 2.51785714285714  13.5535714285714 2.38392857142857  C 13.3660714285714 2.25  13.1160714285714 2.10491071428571  12.8035714285714 1.94866071428571  C 12.4910714285714 1.79241071428571  12.2276785714286 1.71428571428571  12.0133928571429 1.71428571428571  L 12 1.71428571428571  L 11.9866071428571 1.71428571428571  C 11.7723214285714 1.71428571428571  11.5089285714286 1.79241071428571  11.1964285714286 1.94866071428571  C 10.8839285714286 2.10491071428571  10.6339285714286 2.25  10.4464285714286 2.38392857142857  C 10.2589285714286 2.51785714285714  9.98660714285714 2.73214285714286  9.62946428571428 3.02678571428571  C 9.27232142857143 3.32142857142857  9.08035714285714 3.47767857142857  9.05357142857143 3.49553571428571  C 7.13392857142857 4.97767857142857  5.72544642857143 6.07366071428571  4.828125 6.78348214285714  C 3.93080357142857 7.49330357142857  3.35267857142857 7.95758928571428  3.09375 8.17633928571429  C 2.83482142857143 8.39508928571428  2.46875 8.72767857142857  1.99553571428571 9.17410714285714  C 1.87053571428571 9.28125  1.77678571428571 9.36607142857143  2 9.42857142857143  L 2 21.8571428571429  C 1.71428571428571 21.9732142857143  1.75669642857143 22.0736607142857  1.84151785714286 22.1584821428571  C 1.92633928571429 22.2433035714286  2.02678571428571 22.2857142857143  2.14285714285714 22  L 21.8571428571429 22  C 21.9732142857143 22.2857142857143  22.0736607142857 22.2433035714286  22.1584821428571 22.1584821428571  Z M 23.4508928571429 8.16964285714286  C 23.8169642857143 8.50892857142857  24 8.92857142857143  24 9.42857142857143  L 24 21.8571428571429  C 24 22.4464285714286  23.7901785714286 22.9508928571429  23.3705357142857 23.3705357142857  C 22.9508928571429 23.7901785714286  22.4464285714286 24  21.8571428571429 24  L 2.14285714285714 24  C 1.55357142857143 24  1.04910714285714 23.7901785714286  0.629464285714286 23.3705357142857  C 0.209821428571429 22.9508928571429  0 22.4464285714286  0 21.8571428571429  L 0 9.42857142857143  C 0 8.92857142857143  0.183035714285714 8.50892857142857  0.549107142857143 8.16964285714286  C 1.64732142857143 7.15178571428571  3.20982142857143 5.85491071428571  5.23660714285714 4.27901785714286  C 7.26339285714286 2.703125  8.30357142857143 1.89285714285714  8.35714285714286 1.84821428571429  C 8.67857142857143 1.58035714285714  8.94196428571429 1.36830357142857  9.14732142857143 1.21205357142857  C 9.35267857142857 1.05580357142857  9.62723214285714 0.868303571428571  9.97098214285714 0.64955357142857  C 10.3147321428571 0.430803571428569  10.6540178571429 0.267857142857143  10.9888392857143 0.160714285714286  C 11.3236607142857 0.0535714285714297  11.65625 0  11.9866071428571 0  L 12 0  L 12.0133928571429 0  C 12.34375 0  12.6763392857143 0.0535714285714297  13.0111607142857 0.160714285714286  C 13.3459821428571 0.267857142857143  13.6852678571429 0.430803571428569  14.0290178571429 0.64955357142857  C 14.3727678571429 0.868303571428571  14.6473214285714 1.05580357142857  14.8526785714286 1.21205357142857  C 15.0580357142857 1.36830357142857  15.3214285714286 1.58035714285714  15.6428571428571 1.84821428571429  C 16.0267857142857 2.16964285714286  16.7232142857143 2.71428571428571  17.7321428571429 3.48214285714286  C 18.7410714285714 4.25  19.75 5.04017857142857  20.7589285714286 5.85267857142857  C 21.7678571428571 6.66517857142857  22.6651785714286 7.4375  23.4508928571429 8.16964285714286  Z " fill-rule="nonzero" fill="#000000" stroke="none" transform="matrix(1 0 0 1 25 5275 )" />
  </g>
</svg>