<?xml version="1.0" encoding="utf-8"?>
<svg version="1.1" xmlns:xlink="http://www.w3.org/1999/xlink" width="9px" height="9px" xmlns="http://www.w3.org/2000/svg">
  <g transform="matrix(1 0 0 1 -331 -23 )">
    <path d="M 5.51953125 5.51953125  C 5.99368990384611 5.04537259615385  6.23076923076921 4.47475961538462  6.23076923076921 3.8076923076923  C 6.23076923076921 3.140625  5.99368990384611 2.57001201923077  5.51953125 2.09585336538462  C 5.04537259615389 1.62169471153845  4.47475961538457 1.38461538461538  3.80769230769225 1.38461538461538  C 3.14062500000003 1.38461538461538  2.57001201923082 1.62169471153845  2.09585336538461 2.09585336538462  C 1.6216947115385 2.57001201923077  1.38461538461539 3.140625  1.38461538461539 3.8076923076923  C 1.38461538461539 4.47475961538462  1.6216947115385 5.04537259615385  2.09585336538461 5.51953125  C 2.57001201923082 5.99368990384615  3.14062500000003 6.23076923076923  3.80769230769225 6.23076923076923  C 4.47475961538457 6.23076923076923  5.04537259615389 5.99368990384615  5.51953125 5.51953125  Z M 8.79987980769225 7.82091346153845  C 8.93329326923082 7.95432692307693  9 8.11658653846155  9 8.3076923076923  C 9 8.4951923076923  8.93149038461536 8.65745192307693  8.79447115384618 8.79447115384615  C 8.65745192307689 8.93149038461538  8.49519230769229 9  8.30769230769225 9  C 8.11298076923079 9  7.95072115384618 8.93149038461538  7.82091346153843 8.79447115384615  L 5.96574519230775 6.94471153846155  C 5.32031250000003 7.39182692307693  4.6009615384615 7.61538461538462  3.80769230769225 7.61538461538462  C 3.29206730769229 7.61538461538462  2.79897836538461 7.51532451923077  2.32842548076922 7.31520432692308  C 1.85787259615382 7.11508413461538  1.45222355769225 6.8446514423077  1.11147836538461 6.50390625  C 0.770733173076962 6.1631610576923  0.500300480769215 5.75751201923077  0.30018028846157 5.28695913461538  C 0.100060096153823 4.81640625  0 4.3233173076923  0 3.8076923076923  C 0 3.2920673076923  0.100060096153823 2.79897836538462  0.30018028846157 2.32842548076923  C 0.500300480769215 1.85787259615385  0.770733173076962 1.4522235576923  1.11147836538461 1.11147836538462  C 1.45222355769225 0.770733173076924  1.85787259615382 0.500300480769226  2.32842548076922 0.300180288461547  C 2.79897836538461 0.100060096153849  3.29206730769229 0  3.80769230769225 0  C 4.32331730769232 0  4.81640625 0.100060096153849  5.28695913461539 0.300180288461547  C 5.75751201923079 0.500300480769226  6.16316105769225 0.770733173076924  6.50390625 1.11147836538462  C 6.84465144230775 1.4522235576923  7.11508413461539 1.85787259615385  7.31520432692304 2.32842548076923  C 7.51532451923079 2.79897836538462  7.61538461538461 3.2920673076923  7.61538461538461 3.8076923076923  C 7.61538461538461 4.60096153846155  7.39182692307689 5.3203125  6.94471153846157 5.9657451923077  L 8.79987980769225 7.82091346153845  Z " fill-rule="nonzero" fill="#ffffff" stroke="none" transform="matrix(1 0 0 1 331 23 )" />
  </g>
</svg>