<?xml version="1.0" encoding="utf-8"?>
<svg version="1.1" xmlns:xlink="http://www.w3.org/1999/xlink" width="19px" height="16px" xmlns="http://www.w3.org/2000/svg">
  <g transform="matrix(1 0 0 1 -320 -68 )">
    <path d="M 1.1875 7  L 17.8125 7  C 18.1402994791667 6.85714285714286  18.420166015625 6.96875  18.652099609375 7.19196428571429  C 18.884033203125 7.41517857142857  19 7.68452380952381  19 8  C 19 8.31547619047619  18.884033203125 8.58482142857143  18.652099609375 8.80803571428572  C 18.420166015625 9.03125  18.1402994791667 9.14285714285714  17.8125 9.14285714285714  L 17.67333984375 9.14285714285714  L 16.6064453125 15.0535714285714  C 16.5569661458333 15.327380952381  16.4208984375 15.5535714285714  16.1982421875 15.7321428571429  C 15.9755859375 15.9107142857143  15.7220052083333 16  15.4375 16  L 3.5625 16  C 3.27799479166667 16  3.0244140625 15.9107142857143  2.8017578125 15.7321428571429  C 2.5791015625 15.5535714285714  2.44303385416667 15.327380952381  2.3935546875 15.0535714285714  L 1.32666015625 9.14285714285714  L 1.1875 9.14285714285714  C 0.859700520833333 9.14285714285714  0.579833984375 9.03125  0.347900390625 8.80803571428572  C 0.115966796875 8.58482142857143  0 8.31547619047619  0 8  C 0 7.68452380952381  0.115966796875 7.41517857142857  0.347900390625 7.19196428571429  C 0.579833984375 6.96875  0.859700520833333 6.85714285714286  1.1875 7  Z M 4.453125 14  L 4.49951171875 14  C 4.66031901041667 13.9880952380952  4.79484049479167 13.921130952381  4.903076171875 13.7991071428571  C 5.01131184895833 13.6770833333333  5.05924479166667 13.5386904761905  5.046875 13.3839285714286  L 4.75 9.66964285714286  C 4.73763020833333 9.51488095238095  4.66805013020833 9.38541666666667  4.541259765625 9.28125  C 4.41446940104167 9.17708333333333  4.27067057291667 9.13095238095238  4.10986328125 9.14285714285714  C 3.94905598958333 9.15476190476191  3.81453450520833 9.22172619047619  3.706298828125 9.34375  C 3.59806315104167 9.46577380952381  3.55013020833333 9.60416666666666  3.5625 9.75892857142857  L 3.859375 13.4732142857143  C 3.87174479166667 13.6220238095238  3.93513997395833 13.7470238095238  4.049560546875 13.8482142857143  C 4.16398111979167 13.9494047619048  4.29850260416667 14  4.453125 14  Z M 8.13623046875 13.8303571428571  C 8.25374348958333 13.7172619047619  8.3125 13.5833333333333  8.3125 13.4285714285714  L 8.3125 9.71428571428572  C 8.3125 9.55952380952381  8.25374348958333 9.42559523809524  8.13623046875 9.3125  C 8.01871744791667 9.19940476190476  7.87955729166667 9.14285714285714  7.71875 9.14285714285714  C 7.55794270833333 9.14285714285714  7.41878255208333 9.19940476190476  7.30126953125 9.3125  C 7.18375651041667 9.42559523809524  7.125 9.55952380952381  7.125 9.71428571428572  L 7.125 13.4285714285714  C 7.125 13.5833333333333  7.18375651041667 13.7172619047619  7.30126953125 13.8303571428571  C 7.41878255208333 13.9434523809524  7.55794270833333 14  7.71875 14  C 7.87955729166667 14  8.01871744791667 13.9434523809524  8.13623046875 13.8303571428571  Z M 11.69873046875 13.8303571428571  C 11.8162434895833 13.7172619047619  11.875 13.5833333333333  11.875 13.4285714285714  L 11.875 9.71428571428572  C 11.875 9.55952380952381  11.8162434895833 9.42559523809524  11.69873046875 9.3125  C 11.5812174479167 9.19940476190476  11.4420572916667 9.14285714285714  11.28125 9.14285714285714  C 11.1204427083333 9.14285714285714  10.9812825520833 9.19940476190476  10.86376953125 9.3125  C 10.7462565104167 9.42559523809524  10.6875 9.55952380952381  10.6875 9.71428571428572  L 10.6875 13.4285714285714  C 10.6875 13.5833333333333  10.7462565104167 13.7172619047619  10.86376953125 13.8303571428571  C 10.9812825520833 13.9434523809524  11.1204427083333 14  11.28125 14  C 11.4420572916667 14  11.5812174479167 13.9434523809524  11.69873046875 13.8303571428571  Z M 14.950439453125 13.8482142857143  C 15.0648600260417 13.7470238095238  15.1282552083333 13.6220238095238  15.140625 13.4732142857143  L 15.4375 9.75892857142857  C 15.4498697916667 9.60416666666666  15.4019368489583 9.46577380952381  15.293701171875 9.34375  C 15.1854654947917 9.22172619047619  15.0509440104167 9.15476190476191  14.89013671875 9.14285714285714  C 14.7293294270833 9.13095238095238  14.5855305989583 9.17708333333333  14.458740234375 9.28125  C 14.3319498697917 9.38541666666667  14.2623697916667 9.51488095238095  14.25 9.66964285714286  L 13.953125 13.3839285714286  C 13.9407552083333 13.5386904761905  13.9886881510417 13.6770833333333  14.096923828125 13.7991071428571  C 14.2051595052083 13.921130952381  14.3396809895833 13.9880952380952  14.50048828125 14  L 14.546875 14  C 14.7014973958333 14  14.8360188802083 13.9494047619048  14.950439453125 13.8482142857143  Z M 4.838134765625 1.96428571428571  C 4.624755859375 2.13095238095238  4.48404947916667 2.34523809523809  4.416015625 2.60714285714286  L 3.55322265625 6.28571428571429  L 2.32861328125 6.28571428571429  L 3.265625 2.34821428571429  C 3.38313802083333 1.82440476190476  3.65836588541667 1.39732142857143  4.09130859375 1.06696428571429  C 4.52425130208333 0.736607142857142  5.01904296875 0.571428571428571  5.57568359375 0.571428571428571  L 7.125 0.571428571428571  C 7.125 0.416666666666666  7.18375651041667 0.282738095238093  7.30126953125 0.169642857142858  C 7.41878255208333 0.0565476190476204  7.55794270833333 0  7.71875 0  L 11.28125 0  C 11.4420572916667 0  11.5812174479167 0.0565476190476204  11.69873046875 0.169642857142858  C 11.8162434895833 0.282738095238093  11.875 0.416666666666666  11.875 0.571428571428571  L 13.42431640625 0.571428571428571  C 13.98095703125 0.571428571428571  14.4757486979167 0.736607142857142  14.90869140625 1.06696428571429  C 15.3416341145833 1.39732142857143  15.6168619791667 1.82440476190476  15.734375 2.34821428571429  L 16.67138671875 6.28571428571429  L 15.44677734375 6.28571428571429  L 14.583984375 2.60714285714286  C 14.5159505208333 2.34523809523809  14.375244140625 2.13095238095238  14.161865234375 1.96428571428571  C 13.948486328125 1.79761904761905  13.70263671875 1.71428571428571  13.42431640625 1.71428571428571  L 11.875 1.71428571428571  C 11.875 1.86904761904762  11.8162434895833 2.00297619047619  11.69873046875 2.11607142857143  C 11.5812174479167 2.22916666666667  11.4420572916667 2.28571428571429  11.28125 2.28571428571429  L 7.71875 2.28571428571429  C 7.55794270833333 2.28571428571429  7.41878255208333 2.22916666666667  7.30126953125 2.11607142857143  C 7.18375651041667 2.00297619047619  7.125 1.86904761904762  7.125 1.71428571428571  L 5.57568359375 1.71428571428571  C 5.29736328125 1.71428571428571  5.051513671875 1.79761904761905  4.838134765625 1.96428571428571  Z " fill-rule="nonzero" fill="#333333" stroke="none" transform="matrix(1 0 0 1 320 68 )" />
  </g>
</svg>