<?xml version="1.0" encoding="utf-8"?>
<svg version="1.1" xmlns:xlink="http://www.w3.org/1999/xlink" width="25px" height="19px" xmlns="http://www.w3.org/2000/svg">
  <g transform="matrix(1 0 0 1 -310 -6240 )">
    <path d="M 24.6907552083333 15.48203125  C 24.8969184027778 15.6700520833333  25 15.8927083333333  25 16.15  L 25 18.05  C 25 18.3072916666667  24.8969184027778 18.5299479166667  24.6907552083333 18.71796875  C 24.4845920138889 18.9059895833333  24.2404513888889 19  23.9583333333333 19  L 1.04166666666667 19  C 0.759548611111111 19  0.515407986111111 18.9059895833333  0.309244791666667 18.71796875  C 0.103081597222222 18.5299479166667  0 18.3072916666667  0 18.05  L 0 16.15  C 0 15.8927083333333  0.103081597222222 15.6700520833333  0.309244791666667 15.48203125  C 0.515407986111111 15.2940104166667  0.759548611111111 15.2  1.04166666666667 15  L 23.9583333333333 15  C 24.2404513888889 15.2  24.4845920138889 15.2940104166667  24.6907552083333 15.48203125  Z M 24.6907552083333 7.88203125  C 24.8969184027778 8.07005208333333  25 8.29270833333333  25 8.55  L 25 10.45  C 25 10.7072916666667  24.8969184027778 10.9299479166667  24.6907552083333 11.11796875  C 24.4845920138889 11.3059895833333  24.2404513888889 11.4  23.9583333333333 11.4  L 1.04166666666667 11.4  C 0.759548611111111 11.4  0.515407986111111 11.3059895833333  0.309244791666667 11.11796875  C 0.103081597222222 10.9299479166667  0 10.7072916666667  0 10.45  L 0 8.55  C 0 8.29270833333333  0.103081597222222 8.07005208333333  0.309244791666667 7.88203125  C 0.515407986111111 7.69401041666667  0.759548611111111 7.6  1.04166666666667 7.6  L 23.9583333333333 7.6  C 24.2404513888889 7.6  24.4845920138889 7.69401041666667  24.6907552083333 7.88203125  Z M 24.6907552083333 0.282031250000001  C 24.8969184027778 0.470052083333332  25 0.692708333333332  25 0.950000000000001  L 25 2.85  C 25 3.10729166666667  24.8969184027778 3.32994791666667  24.6907552083333 3.51796875  C 24.4845920138889 3.70598958333333  24.2404513888889 3.8  23.9583333333333 4  L 1.04166666666667 4  C 0.759548611111111 3.8  0.515407986111111 3.70598958333333  0.309244791666667 3.51796875  C 0.103081597222222 3.32994791666667  0 3.10729166666667  0 2.85  L 0 0.950000000000001  C 0 0.692708333333332  0.103081597222222 0.470052083333332  0.309244791666667 0.282031250000001  C 0.515407986111111 0.0940104166666655  0.759548611111111 0  1.04166666666667 0  L 23.9583333333333 0  C 24.2404513888889 0  24.4845920138889 0.0940104166666655  24.6907552083333 0.282031250000001  Z " fill-rule="nonzero" fill="#000000" stroke="none" transform="matrix(1 0 0 1 310 6240 )" />
  </g>
</svg>