<?xml version="1.0" encoding="utf-8"?>
<svg version="1.1" xmlns:xlink="http://www.w3.org/1999/xlink" width="19px" height="17px" xmlns="http://www.w3.org/2000/svg">
  <g transform="matrix(1 0 0 1 -150 -1228 )">
    <path d="M 1.1875 7.28571428571429  L 17.8125 7.28571428571429  C 18.1402994791667 7.28571428571429  18.420166015625 7.404296875  18.652099609375 7.64146205357143  C 18.884033203125 7.87862723214286  19 8.16480654761905  19 8.5  C 19 8.83519345238095  18.884033203125 9.12137276785714  18.652099609375 9.35853794642857  C 18.420166015625 9.595703125  18.1402994791667 9.71428571428571  17.8125 9.71428571428571  L 17.67333984375 9.71428571428571  L 16.6064453125 15.9944196428571  C 16.5569661458333 16.2853422619048  16.4208984375 16.5256696428571  16.1982421875 16.7154017857143  C 15.9755859375 16.9051339285714  15.7220052083333 17  15.4375 17  L 3.5625 17  C 3.27799479166667 17  3.0244140625 16.9051339285714  2.8017578125 16.7154017857143  C 2.5791015625 16.5256696428571  2.44303385416667 16.2853422619048  2.3935546875 15.9944196428571  L 1.32666015625 9.71428571428571  L 1.1875 9.71428571428571  C 0.859700520833333 9.71428571428571  0.579833984375 9.595703125  0.347900390625 9.35853794642857  C 0.115966796875 9.12137276785714  0 8.83519345238095  0 8.5  C 0 8.16480654761905  0.115966796875 7.87862723214286  0.347900390625 7.64146205357143  C 0.579833984375 7.404296875  0.859700520833333 7.28571428571429  1.1875 7.28571428571429  Z M 4.453125 14.875  L 4.49951171875 14.875  C 4.66031901041667 14.8623511904762  4.79484049479167 14.7912016369048  4.903076171875 14.6615513392857  C 5.01131184895833 14.5319010416667  5.05924479166667 14.3848586309524  5.046875 14.2204241071429  L 4.75 10.2739955357143  C 4.73763020833333 10.1095610119048  4.66805013020833 9.97200520833333  4.541259765625 9.861328125  C 4.41446940104167 9.75065104166667  4.27067057291667 9.7016369047619  4.10986328125 9.71428571428571  C 3.94905598958333 9.72693452380952  3.81453450520833 9.79808407738095  3.706298828125 9.927734375  C 3.59806315104167 10.057384672619  3.55013020833333 10.2044270833333  3.5625 10.3688616071429  L 3.859375 14.3152901785714  C 3.87174479166667 14.473400297619  3.93513997395833 14.606212797619  4.049560546875 14.7137276785714  C 4.16398111979167 14.8212425595238  4.29850260416667 14.875  4.453125 14.875  Z M 8.13623046875 14.6947544642857  C 8.25374348958333 14.5745907738095  8.3125 14.4322916666667  8.3125 14.2678571428571  L 8.3125 10.3214285714286  C 8.3125 10.156994047619  8.25374348958333 10.0146949404762  8.13623046875 9.89453125  C 8.01871744791667 9.77436755952381  7.87955729166667 9.71428571428571  7.71875 9.71428571428571  C 7.55794270833333 9.71428571428571  7.41878255208333 9.77436755952381  7.30126953125 9.89453125  C 7.18375651041667 10.0146949404762  7.125 10.156994047619  7.125 10.3214285714286  L 7.125 14.2678571428571  C 7.125 14.4322916666667  7.18375651041667 14.5745907738095  7.30126953125 14.6947544642857  C 7.41878255208333 14.8149181547619  7.55794270833333 14.875  7.71875 14.875  C 7.87955729166667 14.875  8.01871744791667 14.8149181547619  8.13623046875 14.6947544642857  Z M 11.69873046875 14.6947544642857  C 11.8162434895833 14.5745907738095  11.875 14.4322916666667  11.875 14.2678571428571  L 11.875 10.3214285714286  C 11.875 10.156994047619  11.8162434895833 10.0146949404762  11.69873046875 9.89453125  C 11.5812174479167 9.77436755952381  11.4420572916667 9.71428571428571  11.28125 9.71428571428571  C 11.1204427083333 9.71428571428571  10.9812825520833 9.77436755952381  10.86376953125 9.89453125  C 10.7462565104167 10.0146949404762  10.6875 10.156994047619  10.6875 10.3214285714286  L 10.6875 14.2678571428571  C 10.6875 14.4322916666667  10.7462565104167 14.5745907738095  10.86376953125 14.6947544642857  C 10.9812825520833 14.8149181547619  11.1204427083333 14.875  11.28125 14.875  C 11.4420572916667 14.875  11.5812174479167 14.8149181547619  11.69873046875 14.6947544642857  Z M 14.950439453125 14.7137276785714  C 15.0648600260417 14.606212797619  15.1282552083333 14.473400297619  15.140625 14.3152901785714  L 15.4375 10.3688616071429  C 15.4498697916667 10.2044270833333  15.4019368489583 10.057384672619  15.293701171875 9.927734375  C 15.1854654947917 9.79808407738095  15.0509440104167 9.72693452380952  14.89013671875 9.71428571428571  C 14.7293294270833 9.7016369047619  14.5855305989583 9.75065104166667  14.458740234375 9.861328125  C 14.3319498697917 9.97200520833333  14.2623697916667 10.1095610119048  14.25 10.2739955357143  L 13.953125 14.2204241071429  C 13.9407552083333 14.3848586309524  13.9886881510417 14.5319010416667  14.096923828125 14.6615513392857  C 14.2051595052083 14.7912016369048  14.3396809895833 14.8623511904762  14.50048828125 14.875  L 14.546875 14.875  C 14.7014973958333 14.875  14.8360188802083 14.8212425595238  14.950439453125 14.7137276785714  Z M 4.838134765625 2.08705357142857  C 4.624755859375 2.2641369047619  4.48404947916667 2.49181547619047  4.416015625 2.77008928571429  L 3.55322265625 6.67857142857143  L 2.32861328125 6.67857142857143  L 3.265625 2.49497767857143  C 3.38313802083333 1.93843005952381  3.65836588541667 1.48465401785714  4.09130859375 1.13364955357143  C 4.52425130208333 0.782645089285714  5.01904296875 0.607142857142857  5.57568359375 0.607142857142857  L 7.125 0.607142857142857  C 7.125 0.442708333333333  7.18375651041667 0.300409226190474  7.30126953125 0.180245535714286  C 7.41878255208333 0.0600818452380967  7.55794270833333 0  7.71875 0  L 11.28125 0  C 11.4420572916667 0  11.5812174479167 0.0600818452380967  11.69873046875 0.180245535714286  C 11.8162434895833 0.300409226190474  11.875 0.442708333333333  11.875 0.607142857142857  L 13.42431640625 0.607142857142857  C 13.98095703125 0.607142857142857  14.4757486979167 0.782645089285714  14.90869140625 1.13364955357143  C 15.3416341145833 1.48465401785714  15.6168619791667 1.93843005952381  15.734375 2.49497767857143  L 16.67138671875 6.67857142857143  L 15.44677734375 6.67857142857143  L 14.583984375 2.77008928571429  C 14.5159505208333 2.49181547619047  14.375244140625 2.2641369047619  14.161865234375 2.08705357142857  C 13.948486328125 1.90997023809524  13.70263671875 1.82142857142857  13.42431640625 1.82142857142857  L 11.875 1.82142857142857  C 11.875 1.98586309523809  11.8162434895833 2.12816220238095  11.69873046875 2.24832589285714  C 11.5812174479167 2.36848958333333  11.4420572916667 2.42857142857143  11.28125 2.42857142857143  L 7.71875 2.42857142857143  C 7.55794270833333 2.42857142857143  7.41878255208333 2.36848958333333  7.30126953125 2.24832589285714  C 7.18375651041667 2.12816220238095  7.125 1.98586309523809  7.125 1.82142857142857  L 5.57568359375 1.82142857142857  C 5.29736328125 1.82142857142857  5.051513671875 1.90997023809524  4.838134765625 2.08705357142857  Z " fill-rule="nonzero" fill="#aaaaaa" stroke="none" fill-opacity="0.505882352941176" transform="matrix(1 0 0 1 150 1228 )" />
  </g>
</svg>