<?xml version="1.0" encoding="utf-8"?>
<svg version="1.1" xmlns:xlink="http://www.w3.org/1999/xlink" width="12px" height="12px" viewBox="172 1598  12 12" xmlns="http://www.w3.org/2000/svg">
  <path d="M 178 1598  C 181.36 1598  184 1600.64  184 1604  C 184 1607.36  181.36 1610  178 1610  C 174.64 1610  172 1607.36  172 1604  C 172 1600.64  174.64 1598  178 1598  Z " fill-rule="nonzero" fill="#ffffff" stroke="none" />
  <path d="M 178 1598.5  C 181.08 1598.5  183.5 1600.92  183.5 1604  C 183.5 1607.08  181.08 1609.5  178 1609.5  C 174.92 1609.5  172.5 1607.08  172.5 1604  C 172.5 1600.92  174.92 1598.5  178 1598.5  Z " stroke-width="1" stroke="#797979" fill="none" />
  <path d="M 178 1607  C 176.32 1607  175 1605.68  175 1604  C 175 1602.32  176.32 1601  178 1601  C 179.68 1601  181 1602.32  181 1604  C 181 1605.68  179.68 1607  178 1607  " fill-rule="nonzero" fill="#797979" stroke="none" />
</svg>