<?xml version="1.0" encoding="utf-8"?>
<svg version="1.1" xmlns:xlink="http://www.w3.org/1999/xlink" width="12px" height="12px" viewBox="194 1598  12 12" xmlns="http://www.w3.org/2000/svg">
  <path d="M 200 1598  C 203.36 1598  206 1600.64  206 1604  C 206 1607.36  203.36 1610  200 1610  C 196.64 1610  194 1607.36  194 1604  C 194 1600.64  196.64 1598  200 1598  Z " fill-rule="nonzero" fill="#ffffff" stroke="none" />
  <path d="M 200 1598.5  C 203.08 1598.5  205.5 1600.92  205.5 1604  C 205.5 1607.08  203.08 1609.5  200 1609.5  C 196.92 1609.5  194.5 1607.08  194.5 1604  C 194.5 1600.92  196.92 1598.5  200 1598.5  Z " stroke-width="1" stroke="#797979" fill="none" />
  <path d="M 200 1607  C 198.32 1607  197 1605.68  197 1604  C 197 1602.32  198.32 1601  200 1601  C 201.68 1601  203 1602.32  203 1604  C 203 1605.68  201.68 1607  200 1607  " fill-rule="nonzero" fill="#797979" stroke="none" />
</svg>