<?xml version="1.0" encoding="utf-8"?>
<svg version="1.1" xmlns:xlink="http://www.w3.org/1999/xlink" width="490px" height="59px" xmlns="http://www.w3.org/2000/svg">
  <g transform="matrix(1 0 0 1 -639 -822 )">
    <path d="M 639.5 826  A 3.5 3.5 0 0 1 643 822.5 L 1125 822.5  A 3.5 3.5 0 0 1 1128.5 826 L 1128.5 877  A 3.5 3.5 0 0 1 1125 880.5 L 643 880.5  A 3.5 3.5 0 0 1 639.5 877 L 639.5 826  Z " fill-rule="nonzero" fill="#d9534f" stroke="none" />
    <path d="M 639.5 826  A 3.5 3.5 0 0 1 643 822.5 L 1125 822.5  A 3.5 3.5 0 0 1 1128.5 826 L 1128.5 877  A 3.5 3.5 0 0 1 1125 880.5 L 643 880.5  A 3.5 3.5 0 0 1 639.5 877 L 639.5 826  Z " stroke-width="1" stroke="#d43f3a" fill="none" />
  </g>
</svg>