<?xml version="1.0" encoding="utf-8"?>
<svg version="1.1" xmlns:xlink="http://www.w3.org/1999/xlink" width="548px" height="59px" xmlns="http://www.w3.org/2000/svg">
  <g transform="matrix(1 0 0 1 -581 -610 )">
    <path d="M 581.5 614  A 3.5 3.5 0 0 1 585 610.5 L 1125 610.5  A 3.5 3.5 0 0 1 1128.5 614 L 1128.5 665  A 3.5 3.5 0 0 1 1125 668.5 L 585 668.5  A 3.5 3.5 0 0 1 581.5 665 L 581.5 614  Z " fill-rule="nonzero" fill="#d9534f" stroke="none" />
    <path d="M 581.5 614  A 3.5 3.5 0 0 1 585 610.5 L 1125 610.5  A 3.5 3.5 0 0 1 1128.5 614 L 1128.5 665  A 3.5 3.5 0 0 1 1125 668.5 L 585 668.5  A 3.5 3.5 0 0 1 581.5 665 L 581.5 614  Z " stroke-width="1" stroke="#d43f3a" fill="none" />
  </g>
</svg>