<?xml version="1.0" encoding="utf-8"?>
<svg version="1.1" xmlns:xlink="http://www.w3.org/1999/xlink" width="194px" height="29px" xmlns="http://www.w3.org/2000/svg">
  <g transform="matrix(1 0 0 1 -730 -550 )">
    <path d="M 730.5 554  A 3.5 3.5 0 0 1 734 550.5 L 920 550.5  A 3.5 3.5 0 0 1 923.5 554 L 923.5 575  A 3.5 3.5 0 0 1 920 578.5 L 734 578.5  A 3.5 3.5 0 0 1 730.5 575 L 730.5 554  Z " fill-rule="nonzero" fill="#d9534f" stroke="none" />
    <path d="M 730.5 554  A 3.5 3.5 0 0 1 734 550.5 L 920 550.5  A 3.5 3.5 0 0 1 923.5 554 L 923.5 575  A 3.5 3.5 0 0 1 920 578.5 L 734 578.5  A 3.5 3.5 0 0 1 730.5 575 L 730.5 554  Z " stroke-width="1" stroke="#d43f3a" fill="none" />
  </g>
</svg>