<?xml version="1.0" encoding="utf-8"?>
<svg version="1.1" xmlns:xlink="http://www.w3.org/1999/xlink" width="31px" height="31px" xmlns="http://www.w3.org/2000/svg">
  <g transform="matrix(1 0 0 1 -462 -622 )">
    <path d="M 477.5 622  C 486.18 622  493 628.82  493 637.5  C 493 646.18  486.18 653  477.5 653  C 468.82 653  462 646.18  462 637.5  C 462 628.82  468.82 622  477.5 622  Z " fill-rule="nonzero" fill="#000000" stroke="none" />
    <path d="M 477.5 622.5  C 485.9 622.5  492.5 629.1  492.5 637.5  C 492.5 645.9  485.9 652.5  477.5 652.5  C 469.1 652.5  462.5 645.9  462.5 637.5  C 462.5 629.1  469.1 622.5  477.5 622.5  Z " stroke-width="1" stroke="#ffffff" fill="none" />
  </g>
</svg>