<?xml version="1.0" encoding="utf-8"?>
<svg version="1.1" xmlns:xlink="http://www.w3.org/1999/xlink" width="186px" height="33px" xmlns="http://www.w3.org/2000/svg">
  <g transform="matrix(1 0 0 1 -538 -898 )">
    <path d="M 538.5 902  A 3.5 3.5 0 0 1 542 898.5 L 720 898.5  A 3.5 3.5 0 0 1 723.5 902 L 723.5 927  A 3.5 3.5 0 0 1 720 930.5 L 542 930.5  A 3.5 3.5 0 0 1 538.5 927 L 538.5 902  Z " fill-rule="nonzero" fill="#ffffff" stroke="none" />
    <path d="M 538.5 902  A 3.5 3.5 0 0 1 542 898.5 L 720 898.5  A 3.5 3.5 0 0 1 723.5 902 L 723.5 927  A 3.5 3.5 0 0 1 720 930.5 L 542 930.5  A 3.5 3.5 0 0 1 538.5 927 L 538.5 902  Z " stroke-width="1" stroke="#dddddd" fill="none" />
  </g>
</svg>