<?xml version="1.0" encoding="utf-8"?>
<svg version="1.1" xmlns:xlink="http://www.w3.org/1999/xlink" width="27px" height="18px" xmlns="http://www.w3.org/2000/svg">
  <g transform="matrix(1 0 0 1 -410 -227 )">
    <path d="M 21.15 14.4  L 5.85 14.4  C 5.23125 14.4  4.7015625 14.1796875  4.2609375 13.7390625  C 3.8203125 13.2984375  3.6 12.76875  3.6 12.15  L 3.6 2.25  C 3.6 1.63125  3.8203125 1.1015625  4.2609375 0.6609375  C 4.7015625 0.220312499999997  5.23125 0  5.85 0  L 21.15 0  C 21.76875 0  22.2984375 0.220312499999997  22.7390625 0.6609375  C 23.1796875 1.1015625  23.4 1.63125  23.4 2.25  L 23.4 12.15  C 23.4 12.76875  23.1796875 13.2984375  22.7390625 13.7390625  C 22.2984375 14.1796875  21.76875 14.4  21.15 14.4  Z M 5.53359375 1.93359375  C 5.44453125 2.02265625  5.4 2.128125  5.4 2.25  L 5.4 12.15  C 5.4 12.271875  5.44453125 12.37734375  5.53359375 12.46640625  C 5.62265625 12.55546875  5.728125 12.6  5.85 12.6  L 21.15 12.6  C 21.271875 12.6  21.37734375 12.55546875  21.46640625 12.46640625  C 21.55546875 12.37734375  21.6 12.271875  21.6 12.15  L 21.6 2.25  C 21.6 2.128125  21.55546875 2.02265625  21.46640625 1.93359375  C 21.37734375 1.84453125  21.271875 1.8  21.15 2  L 5.85 2  C 5.728125 1.8  5.62265625 1.84453125  5.53359375 1.93359375  Z M 2.25 15  L 24.75 15  L 27 15.3  L 27 16.65  C 27 17.025  26.7796875 17.34375  26.3390625 17.60625  C 25.8984375 17.86875  25.36875 18  24.75 18  L 2.25 18  C 1.63125 18  1.1015625 17.86875  0.6609375 17.60625  C 0.2203125 17.34375  0 17.025  0 16.65  L 0 15.3  L 2.25 15  Z M 12.375 16.65  L 14.625 16.65  C 14.775 16.65  14.85 16.575  14.85 16.425  C 14.85 16.275  14.775 16.2  14.625 16.2  L 12.375 16.2  C 12.225 16.2  12.15 16.275  12.15 16.425  C 12.15 16.575  12.225 16.65  12.375 16.65  Z " fill-rule="nonzero" fill="#aaaaaa" stroke="none" transform="matrix(1 0 0 1 410 227 )" />
  </g>
</svg>