<?xml version="1.0" encoding="utf-8"?>
<svg version="1.1" xmlns:xlink="http://www.w3.org/1999/xlink" width="19px" height="23px" xmlns="http://www.w3.org/2000/svg">
  <g transform="matrix(1 0 0 1 -146 -225 )">
    <path d="M 14.2994791666667 0.872767857142858  L 18.1588541666667 4.87723214285714  C 18.3897569444444 5.11681547619047  18.5876736111111 5.44196428571429  18.7526041666667 5.85267857142857  C 18.9175347222222 6.26339285714286  19 6.63988095238095  19 6.98214285714286  L 19 21.7678571428571  C 19 22.110119047619  18.8845486111111 22.4010416666667  18.6536458333333 22.640625  C 18.4227430555556 22.8802083333333  18.1423611111111 23  17.8125 23  L 1.1875 23  C 0.857638888888889 23  0.577256944444445 22.8802083333333  0.346354166666667 22.640625  C 0.115451388888889 22.4010416666667  0 22.110119047619  0 21.7678571428571  L 0 1.23214285714286  C 0 0.889880952380952  0.115451388888889 0.598958333333332  0.346354166666667 0.359375  C 0.577256944444445 0.119791666666668  0.857638888888889 0  1.1875 0  L 12.2708333333333 0  C 12.6006944444444 0  12.9635416666667 0.0855654761904772  13.359375 0.256696428571429  C 13.7552083333333 0.427827380952381  14.0685763888889 0.633184523809523  14.2994791666667 0.872767857142858  Z M 13.173828125 2.02790178571429  C 13.0748697916667 1.92522321428571  12.9058159722222 1.83110119047619  12.6666666666667 1.74553571428571  L 12.6666666666667 6.57142857142857  L 17.3177083333333 6.57142857142857  C 17.2352430555556 6.32328869047619  17.14453125 6.14787946428571  17.0455729166667 6.04520089285714  L 13.173828125 2.02790178571429  Z M 1.58333333333333 21  L 17.4166666666667 21  L 17.4166666666667 8.21428571428571  L 12.2708333333333 8.21428571428571  C 11.9409722222222 8.21428571428571  11.6605902777778 8.09449404761905  11.4296875 7.85491071428571  C 11.1987847222222 7.61532738095238  11.0833333333333 7.32440476190476  11.0833333333333 6.98214285714286  L 11.0833333333333 1.64285714285714  L 1.58333333333333 1.64285714285714  L 1.58333333333333 21  Z M 4.75 11.0892857142857  L 4.75 10.2678571428571  C 4.75 10.1480654761905  4.787109375 10.0496651785714  4.861328125 9.97265625  C 4.935546875 9.89564732142857  5.03038194444444 9.85714285714286  5.14583333333333 9.85714285714286  L 13.8541666666667 9.85714285714286  C 13.9696180555556 9.85714285714286  14.064453125 9.89564732142857  14.138671875 9.97265625  C 14.212890625 10.0496651785714  14.25 10.1480654761905  14.25 10.2678571428571  L 14.25 11.0892857142857  C 14.25 11.2090773809524  14.212890625 11.3074776785714  14.138671875 11.3844866071429  C 14.064453125 11.4614955357143  13.9696180555556 11.5  13.8541666666667 11.5  L 5.14583333333333 11.5  C 5.03038194444444 11.5  4.935546875 11.4614955357143  4.861328125 11.3844866071429  C 4.787109375 11.3074776785714  4.75 11.2090773809524  4.75 11.0892857142857  Z M 5.14583333333333 13.1428571428571  L 13.8541666666667 13.1428571428571  C 13.9696180555556 13.1428571428571  14.064453125 13.1813616071429  14.138671875 13.2583705357143  C 14.212890625 13.3353794642857  14.25 13.4337797619048  14.25 13.5535714285714  L 14.25 14.375  C 14.25 14.4947916666667  14.212890625 14.5931919642857  14.138671875 14.6702008928571  C 14.064453125 14.7472098214286  13.9696180555556 14.7857142857143  13.8541666666667 14.7857142857143  L 5.14583333333333 14.7857142857143  C 5.03038194444444 14.7857142857143  4.935546875 14.7472098214286  4.861328125 14.6702008928571  C 4.787109375 14.5931919642857  4.75 14.4947916666667  4.75 14.375  L 4.75 13.5535714285714  C 4.75 13.4337797619048  4.787109375 13.3353794642857  4.861328125 13.2583705357143  C 4.935546875 13.1813616071429  5.03038194444444 13.1428571428571  5.14583333333333 13.1428571428571  Z M 5.14583333333333 16.4285714285714  L 13.8541666666667 16.4285714285714  C 13.9696180555556 16.4285714285714  14.064453125 16.4670758928571  14.138671875 16.5440848214286  C 14.212890625 16.62109375  14.25 16.719494047619  14.25 16.8392857142857  L 14.25 17.6607142857143  C 14.25 17.780505952381  14.212890625 17.87890625  14.138671875 17.9559151785714  C 14.064453125 18.0329241071429  13.9696180555556 18.0714285714286  13.8541666666667 18.0714285714286  L 5.14583333333333 18.0714285714286  C 5.03038194444444 18.0714285714286  4.935546875 18.0329241071429  4.861328125 17.9559151785714  C 4.787109375 17.87890625  4.75 17.780505952381  4.75 17.6607142857143  L 4.75 16.8392857142857  C 4.75 16.719494047619  4.787109375 16.62109375  4.861328125 16.5440848214286  C 4.935546875 16.4670758928571  5.03038194444444 16.4285714285714  5.14583333333333 16.4285714285714  Z " fill-rule="nonzero" fill="#aaaaaa" stroke="none" transform="matrix(1 0 0 1 146 225 )" />
  </g>
</svg>