<?xml version="1.0" encoding="utf-8"?>
<svg version="1.1" xmlns:xlink="http://www.w3.org/1999/xlink" width="25px" height="22px" xmlns="http://www.w3.org/2000/svg">
  <g transform="matrix(1 0 0 1 -931 -225 )">
    <path d="M 14.8111979166667 19.6837797619048  C 15.0065104166667 19.5364583333333  15.1041666666667 19.3263888888889  15.1041666666667 19.0535714285714  L 15.1041666666667 18.1369047619048  L 15.1041666666667 10.4761904761905  L 15.1041666666667 7.33333333333333  L 9.89583333333333 7.33333333333333  L 9.89583333333333 10.4761904761905  L 9.89583333333333 18.1369047619048  L 9.89583333333333 19.0535714285714  C 9.89583333333333 19.3263888888889  9.99348958333333 19.5364583333333  10.1888020833333 19.6837797619048  C 10.3841145833333 19.8311011904762  10.6336805555556 19.9047619047619  10.9375 19.9047619047619  L 14.0625 19.9047619047619  C 14.3663194444444 19.9047619047619  14.6158854166667 19.8311011904762  14.8111979166667 19.6837797619048  Z M 6.57552083333333 4.77976190476191  C 6.87934027777778 5.08531746031746  7.24826388888889 5.23809523809524  7.68229166666667 5.23809523809524  L 10.8561197916667 5.23809523809524  L 8.80533854166667 2.60267857142857  C 8.52322048611111 2.26438492063492  8.14887152777778 2.09523809523809  7.68229166666667 2.09523809523809  C 7.24826388888889 2.09523809523809  6.87934027777778 2.24801587301587  6.57552083333333 2.55357142857143  C 6.27170138888889 2.85912698412698  6.11979166666667 3.23015873015873  6.11979166666667 3.66666666666667  C 6.11979166666667 4.1031746031746  6.27170138888889 4.47420634920635  6.57552083333333 4.77976190476191  Z M 18.4244791666667 4.77976190476191  C 18.7282986111111 4.47420634920635  18.8802083333333 4.1031746031746  18.8802083333333 3.66666666666667  C 18.8802083333333 3.23015873015873  18.7282986111111 2.85912698412698  18.4244791666667 2.55357142857143  C 18.1206597222222 2.24801587301587  17.7517361111111 2.09523809523809  17.3177083333333 2.09523809523809  C 16.8511284722222 2.09523809523809  16.4767795138889 2.26438492063492  16.1946614583333 2.60267857142857  L 14.16015625 5.23809523809524  L 17.3177083333333 5.23809523809524  C 17.7517361111111 5.23809523809524  18.1206597222222 5.08531746031746  18.4244791666667 4.77976190476191  Z M 24.853515625 7.48065476190476  C 24.951171875 7.57886904761905  25 7.70436507936508  25 7.85714285714286  L 25 13.0952380952381  C 25 13.2480158730159  24.951171875 13.3735119047619  24.853515625 13.4717261904762  C 24.755859375 13.5699404761905  24.6310763888889 13.6190476190476  24.4791666666667 13.6190476190476  L 22.9166666666667 13.6190476190476  L 22.9166666666667 20.4285714285714  C 22.9166666666667 20.8650793650794  22.7647569444444 21.2361111111111  22.4609375 21.5416666666667  C 22.1571180555556 21.8472222222222  21.7881944444444 22  21.3541666666667 22  L 3.64583333333333 22  C 3.21180555555556 22  2.84288194444444 21.8472222222222  2.5390625 21.5416666666667  C 2.23524305555556 21.2361111111111  2.08333333333333 20.8650793650794  2.08333333333333 20.4285714285714  L 2.08333333333333 13.6190476190476  L 0.520833333333333 13.6190476190476  C 0.368923611111111 13.6190476190476  0.244140625 13.5699404761905  0.146484375 13.4717261904762  C 0.048828125 13.3735119047619  0 13.2480158730159  0 13.0952380952381  L 0 7.85714285714286  C 0 7.70436507936508  0.048828125 7.57886904761905  0.146484375 7.48065476190476  C 0.244140625 7.38244047619048  0.368923611111111 7.33333333333333  0.520833333333333 7.33333333333333  L 7.68229166666667 7.33333333333333  C 6.67317708333333 7.33333333333333  5.81325954861111 6.97594246031746  5.1025390625 6.26116071428571  C 4.39181857638889 5.54637896825397  4.03645833333333 4.68154761904762  4.03645833333333 3.66666666666667  C 4.03645833333333 2.65178571428571  4.39181857638889 1.78695436507936  5.1025390625 1.07217261904762  C 5.81325954861111 0.357390873015872  6.67317708333333 0  7.68229166666667 0  C 8.84331597222222 0  9.75477430555556 0.420138888888886  10.4166666666667 1.26041666666667  L 12.5 3.96130952380952  L 14.5833333333333 1.26041666666667  C 15.2452256944444 0.420138888888886  16.1566840277778 0  17.3177083333333 0  C 18.3268229166667 0  19.1867404513889 0.357390873015872  19.8974609375 1.07217261904762  C 20.6081814236111 1.78695436507936  20.9635416666667 2.65178571428571  20.9635416666667 3.66666666666667  C 20.9635416666667 4.68154761904762  20.6081814236111 5.54637896825397  19.8974609375 6.26116071428571  C 19.1867404513889 6.97594246031746  18.3268229166667 7.33333333333333  17.3177083333333 7.33333333333333  L 24.4791666666667 7.33333333333333  C 24.6310763888889 7.33333333333333  24.755859375 7.38244047619048  24.853515625 7.48065476190476  Z " fill-rule="nonzero" fill="#aaaaaa" stroke="none" transform="matrix(1 0 0 1 931 225 )" />
  </g>
</svg>